<?xml version="1.0" encoding="us-ascii" standalone="no"?><svg xmlns="http://www.w3.org/2000/svg" xmlns:xlink="http://www.w3.org/1999/xlink" contentStyleType="text/css" height="1221px" preserveAspectRatio="none" style="width:795px;height:1221px;background:#FFFFFF;" version="1.1" viewBox="0 0 795 1221" width="795px" zoomAndPan="magnify"><defs/><g><text fill="#000000" font-family="sans-serif" font-size="20" font-weight="bold" lengthAdjust="spacing" textLength="609" x="91.5" y="40.7617">&#1044;&#1080;&#1072;&#1075;&#1088;&#1072;&#1084;&#1084;&#1072; &#1072;&#1082;&#1090;&#1080;&#1074;&#1085;&#1086;&#1089;&#1090;&#1080;: &#1055;&#1086;&#1083;&#1100;&#1079;&#1086;&#1074;&#1072;&#1090;&#1077;&#1083;&#1100; &#1079;&#1072;&#1087;&#1088;&#1072;&#1096;&#1080;&#1074;&#1072;&#1077;&#1090; &#1089;&#1090;&#1088;&#1072;&#1085;&#1080;&#1094;&#1091;</text><ellipse cx="382.75" cy="66.1563" fill="#222222" rx="10" ry="10" style="stroke:#222222;stroke-width:1.0;"/><rect fill="#E0FFFF" height="238.5781" style="stroke:#000000;stroke-width:1.5;" width="574.5" x="115.25" y="86.1563"/><path d="M207.25,86.1563 L207.25,96.7656 L197.25,106.7656 L115.25,106.7656 " fill="none" style="stroke:#000000;stroke-width:1.5;"/><text fill="#000000" font-family="sans-serif" font-size="14" lengthAdjust="spacing" textLength="82" x="118.25" y="101.6895">EventSystem</text><rect fill="#F1F1F1" height="37.6094" rx="12.5" ry="12.5" style="stroke:#181818;stroke-width:0.5;" width="369" x="198.25" y="123.7656"/><text fill="#000000" font-family="sans-serif" font-size="14" lengthAdjust="spacing" textLength="349" x="208.25" y="148.2988">&#1055;&#1086;&#1083;&#1091;&#1095;&#1080;&#1090;&#1100; &#1080; &#1088;&#1072;&#1079;&#1086;&#1073;&#1088;&#1072;&#1090;&#1100; &#1089;&#1086;&#1073;&#1099;&#1090;&#1080;&#1077; "&#1055;&#1086;&#1083;&#1091;&#1095;&#1080;&#1090;&#1100; &#1089;&#1090;&#1088;&#1072;&#1085;&#1080;&#1094;&#1091;"</text><polygon fill="#F1F1F1" points="252.25,181.5156,513.25,181.5156,525.25,193.5156,513.25,205.5156,252.25,205.5156,240.25,193.5156,252.25,181.5156" style="stroke:#181818;stroke-width:0.5;"/><text fill="#000000" font-family="sans-serif" font-size="14" lengthAdjust="spacing" textLength="261" x="252.25" y="199.2441">&#1057;&#1086;&#1073;&#1099;&#1090;&#1080;&#1077; &#1079;&#1072;&#1088;&#1077;&#1075;&#1080;&#1089;&#1090;&#1088;&#1080;&#1088;&#1086;&#1074;&#1072;&#1085;&#1086; &#1074; &#1089;&#1080;&#1089;&#1090;&#1077;&#1084;&#1077;?</text><text fill="#000000" font-family="sans-serif" font-size="16" lengthAdjust="spacing" textLength="24" x="216.25" y="190">&#1085;&#1077;&#1090;</text><text fill="#000000" font-family="sans-serif" font-size="16" lengthAdjust="spacing" textLength="18" x="525.25" y="190">&#1076;&#1072;</text><rect fill="#FFC0CB" height="55.2188" rx="12.5" ry="12.5" style="stroke:#181818;stroke-width:0.5;" width="190" x="135.25" y="215.5156"/><text fill="#000000" font-family="sans-serif" font-size="14" lengthAdjust="spacing" textLength="120" x="145.25" y="240.0488">&#1054;&#1096;&#1080;&#1073;&#1082;&#1072; "&#1057;&#1086;&#1073;&#1099;&#1090;&#1080;&#1077;</text><text fill="#000000" font-family="sans-serif" font-size="14" lengthAdjust="spacing" textLength="170" x="145.25" y="257.6582">&#1072;&#1074;&#1090;&#1086;&#1088;&#1080;&#1079;&#1072;&#1094;&#1080;&#1080; &#1085;&#1077; &#1085;&#1072;&#1081;&#1076;&#1077;&#1085;&#1086;"</text><ellipse cx="230.25" cy="301.7344" fill="none" rx="11" ry="11" style="stroke:#222222;stroke-width:1.0;"/><ellipse cx="230.25" cy="301.7344" fill="#222222" rx="6" ry="6" style="stroke:#222222;stroke-width:1.0;"/><rect fill="#F1F1F1" height="37.6094" rx="12.5" ry="12.5" style="stroke:#181818;stroke-width:0.5;" width="269" x="400.75" y="215.5156"/><text fill="#000000" font-family="sans-serif" font-size="14" lengthAdjust="spacing" textLength="249" x="410.75" y="240.0488">&#1055;&#1086;&#1083;&#1091;&#1095;&#1080;&#1090;&#1100; &#1089;&#1090;&#1088;&#1072;&#1085;&#1080;&#1094;&#1091; &#1095;&#1077;&#1088;&#1077;&#1079; PageRouter</text><rect fill="#E0FFFF" height="875.4844" style="stroke:#000000;stroke-width:1.5;" width="773" x="11" y="334.7344"/><path d="M97,334.7344 L97,345.3438 L87,355.3438 L11,355.3438 " fill="none" style="stroke:#000000;stroke-width:1.5;"/><text fill="#000000" font-family="sans-serif" font-size="14" lengthAdjust="spacing" textLength="76" x="14" y="350.2676">PageRouter</text><rect fill="#F1F1F1" height="72.8281" rx="12.5" ry="12.5" style="stroke:#181818;stroke-width:0.5;" width="215" x="275.25" y="372.3438"/><text fill="#000000" font-family="sans-serif" font-size="14" lengthAdjust="spacing" textLength="119" x="285.25" y="396.877">&#1055;&#1086;&#1083;&#1091;&#1095;&#1077;&#1085;&#1099; &#1076;&#1072;&#1085;&#1085;&#1099;&#1077;</text><text fill="#000000" font-family="sans-serif" font-size="14" lengthAdjust="spacing" textLength="195" x="285.25" y="414.4863">(&#1048;&#1084;&#1103;, "&#1072;&#1076;&#1084;&#1080;&#1085; &#1082;&#1086;&#1076;", id &#1057;&#1077;&#1089;&#1089;&#1080;&#1080;)</text><text fill="#000000" font-family="sans-serif" font-size="14" lengthAdjust="spacing" textLength="182" x="285.25" y="432.0957">&#1076;&#1083;&#1103; &#1072;&#1074;&#1090;&#1086;&#1088;&#1080;&#1079;&#1072;&#1094;&#1080;&#1080; &#1077;&#1089;&#1083;&#1080; &#1077;&#1089;&#1090;&#1100;</text><rect fill="#20B2AA" height="87.2188" style="stroke:#000000;stroke-width:1.5;" width="302" x="231.75" y="455.1719"/><path d="M316.75,455.1719 L316.75,465.7813 L306.75,475.7813 L231.75,475.7813 " fill="none" style="stroke:#000000;stroke-width:1.5;"/><text fill="#000000" font-family="sans-serif" font-size="14" lengthAdjust="spacing" textLength="75" x="234.75" y="470.7051">GameRoom</text><rect fill="#F1F1F1" height="37.6094" rx="12.5" ry="12.5" style="stroke:#181818;stroke-width:0.5;" width="282" x="241.75" y="492.7813"/><text fill="#000000" font-family="sans-serif" font-size="14" lengthAdjust="spacing" textLength="262" x="251.75" y="517.3145">&#1042;&#1099;&#1087;&#1086;&#1083;&#1085;&#1080;&#1090;&#1100; &#1072;&#1074;&#1090;&#1086;&#1088;&#1080;&#1079;&#1072;&#1094;&#1080;&#1102; &#1087;&#1086;&#1083;&#1100;&#1079;&#1086;&#1074;&#1072;&#1090;&#1077;&#1083;&#1103;</text><polygon fill="#F1F1F1" points="265.75,562.5313,499.75,562.5313,511.75,574.5313,499.75,586.5313,265.75,586.5313,253.75,574.5313,265.75,562.5313" style="stroke:#181818;stroke-width:0.5;"/><text fill="#000000" font-family="sans-serif" font-size="14" lengthAdjust="spacing" textLength="234" x="265.75" y="580.2598">&#1055;&#1086;&#1083;&#1100;&#1079;&#1086;&#1074;&#1072;&#1090;&#1077;&#1083;&#1100; &#1072;&#1074;&#1090;&#1086;&#1088;&#1080;&#1079;&#1080;&#1088;&#1086;&#1074;&#1072;&#1085;&#1085;&#1099;&#1081; ?</text><text fill="#000000" font-family="sans-serif" font-size="16" lengthAdjust="spacing" textLength="31" x="222.75" y="571.0156">&#1053;&#1045;&#1058;</text><text fill="#000000" font-family="sans-serif" font-size="16" lengthAdjust="spacing" textLength="22" x="511.75" y="571.0156">&#1044;&#1040;</text><rect fill="#FAFAD2" height="87.2188" style="stroke:#000000;stroke-width:1.5;" width="335" x="23" y="596.5313"/><path d="M113,596.5313 L113,607.1406 L103,617.1406 L23,617.1406 " fill="none" style="stroke:#000000;stroke-width:1.5;"/><text fill="#000000" font-family="sans-serif" font-size="14" lengthAdjust="spacing" textLength="80" x="26" y="612.0645">RenderPage</text><rect fill="#F1F1F1" height="37.6094" rx="12.5" ry="12.5" style="stroke:#181818;stroke-width:0.5;" width="315" x="33" y="634.1406"/><text fill="#000000" font-family="sans-serif" font-size="14" lengthAdjust="spacing" textLength="295" x="43" y="658.6738">&#1042;&#1099;&#1087;&#1086;&#1083;&#1085;&#1080;&#1090;&#1100; &#1088;&#1077;&#1085;&#1076;&#1077;&#1088; &#1089;&#1090;&#1088;&#1072;&#1085;&#1080;&#1094;&#1099; "&#1040;&#1074;&#1090;&#1086;&#1088;&#1080;&#1079;&#1072;&#1094;&#1080;&#1103;"</text><rect fill="#FAFAD2" height="437.9375" style="stroke:#000000;stroke-width:1.5;" width="394" x="378" y="596.5313"/><path d="M468,596.5313 L468,607.1406 L458,617.1406 L378,617.1406 " fill="none" style="stroke:#000000;stroke-width:1.5;"/><text fill="#000000" font-family="sans-serif" font-size="14" lengthAdjust="spacing" textLength="80" x="381" y="612.0645">RenderPage</text><rect fill="#F1F1F1" height="37.6094" rx="12.5" ry="12.5" style="stroke:#181818;stroke-width:0.5;" width="342" x="404" y="634.1406"/><text fill="#000000" font-family="sans-serif" font-size="14" lengthAdjust="spacing" textLength="322" x="414" y="658.6738">&#1042;&#1099;&#1087;&#1086;&#1083;&#1085;&#1080;&#1090;&#1100; &#1088;&#1077;&#1085;&#1076;&#1077;&#1088; &#1089;&#1090;&#1088;&#1072;&#1085;&#1080;&#1094;&#1099; "&#1048;&#1075;&#1088;&#1086;&#1074;&#1072;&#1103; &#1082;&#1086;&#1084;&#1085;&#1072;&#1090;&#1072;"</text><rect fill="#F1F1F1" height="55.2188" rx="12.5" ry="12.5" style="stroke:#181818;stroke-width:0.5;" width="247" x="451.5" y="698.75"/><text fill="#000000" font-family="sans-serif" font-size="14" lengthAdjust="spacing" textLength="227" x="461.5" y="723.2832">&#1055;&#1086;&#1083;&#1091;&#1095;&#1077;&#1085;&#1099; &#1076;&#1072;&#1085;&#1085;&#1099;&#1077; &#1086; &#1087;&#1086;&#1083;&#1100;&#1079;&#1086;&#1074;&#1072;&#1090;&#1077;&#1083;&#1077;</text><text fill="#000000" font-family="sans-serif" font-size="14" lengthAdjust="spacing" textLength="195" x="461.5" y="740.8926">(&#1048;&#1084;&#1103;, "&#1072;&#1076;&#1084;&#1080;&#1085; &#1082;&#1086;&#1076;", id &#1057;&#1077;&#1089;&#1089;&#1080;&#1080;)</text><rect fill="#20B2AA" height="87.2188" style="stroke:#000000;stroke-width:1.5;" width="374" x="388" y="763.9688"/><path d="M473,763.9688 L473,774.5781 L463,784.5781 L388,784.5781 " fill="none" style="stroke:#000000;stroke-width:1.5;"/><text fill="#000000" font-family="sans-serif" font-size="14" lengthAdjust="spacing" textLength="75" x="391" y="779.502">GameRoom</text><rect fill="#F1F1F1" height="37.6094" rx="12.5" ry="12.5" style="stroke:#181818;stroke-width:0.5;" width="354" x="398" y="801.5781"/><text fill="#000000" font-family="sans-serif" font-size="14" lengthAdjust="spacing" textLength="334" x="408" y="826.1113">&#1042;&#1099;&#1087;&#1086;&#1083;&#1085;&#1080;&#1090;&#1100; &#1087;&#1088;&#1086;&#1074;&#1077;&#1088;&#1082;&#1091; &#1085;&#1072; &#1082;&#1086;&#1088;&#1088;&#1077;&#1082;&#1090;&#1085;&#1086;&#1089;&#1090;&#1100; "&#1040;&#1076;&#1084;&#1080;&#1085; &#1082;&#1086;&#1076;"</text><rect fill="#F1F1F1" height="55.2188" rx="12.5" ry="12.5" style="stroke:#181818;stroke-width:0.5;" width="240" x="455" y="923.25"/><text fill="#000000" font-family="sans-serif" font-size="14" lengthAdjust="spacing" textLength="220" x="465" y="947.7832">&#1044;&#1086;&#1073;&#1072;&#1074;&#1080;&#1090;&#1100; &#1074; &#1075;&#1077;&#1085;&#1077;&#1088;&#1072;&#1094;&#1080;&#1102; &#1089;&#1090;&#1088;&#1072;&#1085;&#1080;&#1094;&#1099;</text><text fill="#000000" font-family="sans-serif" font-size="14" lengthAdjust="spacing" textLength="123" x="465" y="965.3926">"&#1041;&#1083;&#1086;&#1082; &#1091;&#1087;&#1088;&#1072;&#1074;&#1083;&#1077;&#1085;&#1080;&#1103;"</text><polygon fill="#F1F1F1" points="500,871.1875,650,871.1875,662,883.1875,650,895.1875,500,895.1875,488,883.1875,500,871.1875" style="stroke:#181818;stroke-width:0.5;"/><text fill="#000000" font-family="sans-serif" font-size="16" lengthAdjust="spacing" textLength="22" x="579" y="911.7969">&#1044;&#1040;</text><text fill="#000000" font-family="sans-serif" font-size="14" lengthAdjust="spacing" textLength="150" x="500" y="888.916">"&#1040;&#1076;&#1084;&#1080;&#1085; &#1082;&#1086;&#1076;" &#1082;&#1086;&#1088;&#1088;&#1077;&#1082;&#1090;&#1077;&#1085;</text><polygon fill="#F1F1F1" points="575,998.4688,587,1010.4688,575,1022.4688,563,1010.4688,575,998.4688" style="stroke:#181818;stroke-width:0.5;"/><polygon fill="#F1F1F1" points="382.75,1040.4688,394.75,1052.4688,382.75,1064.4688,370.75,1052.4688,382.75,1040.4688" style="stroke:#181818;stroke-width:0.5;"/><polygon fill="#F1F1F1" points="276.75,1084.6094,488.75,1084.6094,500.75,1096.6094,488.75,1108.6094,276.75,1108.6094,264.75,1096.6094,276.75,1084.6094" style="stroke:#181818;stroke-width:0.5;"/><text fill="#000000" font-family="sans-serif" font-size="14" lengthAdjust="spacing" textLength="212" x="276.75" y="1102.3379">&#1059;&#1076;&#1072;&#1083;&#1086;&#1089;&#1100; &#1086;&#1090;&#1088;&#1077;&#1085;&#1076;&#1077;&#1088;&#1080;&#1090;&#1100; &#1089;&#1090;&#1088;&#1072;&#1085;&#1080;&#1094;&#1091;</text><text fill="#000000" font-family="sans-serif" font-size="16" lengthAdjust="spacing" textLength="22" x="242.75" y="1093.0938">&#1044;&#1040;</text><text fill="#000000" font-family="sans-serif" font-size="16" lengthAdjust="spacing" textLength="31" x="500.75" y="1093.0938">&#1053;&#1045;&#1058;</text><rect fill="#98FB98" height="37.6094" rx="12.5" ry="12.5" style="stroke:#181818;stroke-width:0.5;" width="141" x="184.25" y="1118.6094"/><text fill="#000000" font-family="sans-serif" font-size="14" lengthAdjust="spacing" textLength="121" x="194.25" y="1143.1426">&#1042;&#1077;&#1088;&#1085;&#1091;&#1090;&#1100; &#1089;&#1090;&#1088;&#1072;&#1085;&#1080;&#1094;&#1091;</text><ellipse cx="254.75" cy="1187.2188" fill="none" rx="11" ry="11" style="stroke:#222222;stroke-width:1.0;"/><ellipse cx="254.75" cy="1187.2188" fill="#222222" rx="6" ry="6" style="stroke:#222222;stroke-width:1.0;"/><rect fill="#FFC0CB" height="37.6094" rx="12.5" ry="12.5" style="stroke:#181818;stroke-width:0.5;" width="329" x="346.25" y="1118.6094"/><text fill="#000000" font-family="sans-serif" font-size="14" lengthAdjust="spacing" textLength="309" x="356.25" y="1143.1426">&#1054;&#1096;&#1080;&#1073;&#1082;&#1072; "&#1053;&#1077; &#1091;&#1076;&#1072;&#1083;&#1086;&#1089;&#1100; &#1089;&#1075;&#1077;&#1085;&#1077;&#1088;&#1080;&#1088;&#1086;&#1074;&#1072;&#1090;&#1100; &#1089;&#1090;&#1088;&#1072;&#1085;&#1080;&#1094;&#1091;"</text><ellipse cx="510.75" cy="1187.2188" fill="none" rx="11" ry="11" style="stroke:#222222;stroke-width:1.0;"/><ellipse cx="510.75" cy="1187.2188" fill="#222222" rx="6" ry="6" style="stroke:#222222;stroke-width:1.0;"/><line style="stroke:#181818;stroke-width:1.0;" x1="230.25" x2="230.25" y1="270.7344" y2="290.7344"/><polygon fill="#181818" points="226.25,280.7344,230.25,290.7344,234.25,280.7344,230.25,284.7344" style="stroke:#181818;stroke-width:1.0;"/><line style="stroke:#181818;stroke-width:1.0;" x1="240.25" x2="230.25" y1="193.5156" y2="193.5156"/><line style="stroke:#181818;stroke-width:1.0;" x1="230.25" x2="230.25" y1="193.5156" y2="215.5156"/><polygon fill="#181818" points="226.25,205.5156,230.25,215.5156,234.25,205.5156,230.25,209.5156" style="stroke:#181818;stroke-width:1.0;"/><line style="stroke:#181818;stroke-width:1.0;" x1="525.25" x2="535.25" y1="193.5156" y2="193.5156"/><line style="stroke:#181818;stroke-width:1.0;" x1="535.25" x2="535.25" y1="193.5156" y2="215.5156"/><polygon fill="#181818" points="531.25,205.5156,535.25,215.5156,539.25,205.5156,535.25,209.5156" style="stroke:#181818;stroke-width:1.0;"/><line style="stroke:#181818;stroke-width:1.0;" x1="535.25" x2="535.25" y1="253.125" y2="317.7344"/><line style="stroke:#181818;stroke-width:1.0;" x1="535.25" x2="382.75" y1="317.7344" y2="317.7344"/><line style="stroke:#181818;stroke-width:1.0;" x1="382.75" x2="382.75" y1="317.7344" y2="372.3438"/><polygon fill="#181818" points="378.75,362.3438,382.75,372.3438,386.75,362.3438,382.75,366.3438" style="stroke:#181818;stroke-width:1.0;"/><line style="stroke:#181818;stroke-width:1.0;" x1="382.75" x2="382.75" y1="161.375" y2="181.5156"/><polygon fill="#181818" points="378.75,171.5156,382.75,181.5156,386.75,171.5156,382.75,175.5156" style="stroke:#181818;stroke-width:1.0;"/><line style="stroke:#181818;stroke-width:1.0;" x1="382.75" x2="382.75" y1="76.1563" y2="123.7656"/><polygon fill="#181818" points="378.75,113.7656,382.75,123.7656,386.75,113.7656,382.75,117.7656" style="stroke:#181818;stroke-width:1.0;"/><line style="stroke:#181818;stroke-width:1.0;" x1="382.75" x2="382.75" y1="445.1719" y2="492.7813"/><polygon fill="#181818" points="378.75,482.7813,382.75,492.7813,386.75,482.7813,382.75,486.7813" style="stroke:#181818;stroke-width:1.0;"/><line style="stroke:#181818;stroke-width:1.0;" x1="575" x2="575" y1="671.75" y2="698.75"/><polygon fill="#181818" points="571,688.75,575,698.75,579,688.75,575,692.75" style="stroke:#181818;stroke-width:1.0;"/><line style="stroke:#181818;stroke-width:1.0;" x1="575" x2="575" y1="753.9688" y2="801.5781"/><polygon fill="#181818" points="571,791.5781,575,801.5781,579,791.5781,575,795.5781" style="stroke:#181818;stroke-width:1.0;"/><line style="stroke:#181818;stroke-width:1.0;" x1="575" x2="575" y1="895.1875" y2="923.25"/><polygon fill="#181818" points="571,913.25,575,923.25,579,913.25,575,917.25" style="stroke:#181818;stroke-width:1.0;"/><line style="stroke:#181818;stroke-width:1.0;" x1="662" x2="705" y1="883.1875" y2="883.1875"/><polygon fill="#181818" points="701,940.8594,705,950.8594,709,940.8594,705,944.8594" style="stroke:#181818;stroke-width:1.0;"/><line style="stroke:#181818;stroke-width:1.0;" x1="705" x2="705" y1="883.1875" y2="1010.4688"/><line style="stroke:#181818;stroke-width:1.0;" x1="705" x2="587" y1="1010.4688" y2="1010.4688"/><polygon fill="#181818" points="597,1006.4688,587,1010.4688,597,1014.4688,593,1010.4688" style="stroke:#181818;stroke-width:1.0;"/><line style="stroke:#181818;stroke-width:1.0;" x1="575" x2="575" y1="978.4688" y2="998.4688"/><polygon fill="#181818" points="571,988.4688,575,998.4688,579,988.4688,575,992.4688" style="stroke:#181818;stroke-width:1.0;"/><line style="stroke:#181818;stroke-width:1.0;" x1="575" x2="575" y1="839.1875" y2="871.1875"/><polygon fill="#181818" points="571,861.1875,575,871.1875,579,861.1875,575,865.1875" style="stroke:#181818;stroke-width:1.0;"/><line style="stroke:#181818;stroke-width:1.0;" x1="253.75" x2="190.5" y1="574.5313" y2="574.5313"/><line style="stroke:#181818;stroke-width:1.0;" x1="190.5" x2="190.5" y1="574.5313" y2="634.1406"/><polygon fill="#181818" points="186.5,624.1406,190.5,634.1406,194.5,624.1406,190.5,628.1406" style="stroke:#181818;stroke-width:1.0;"/><line style="stroke:#181818;stroke-width:1.0;" x1="511.75" x2="575" y1="574.5313" y2="574.5313"/><line style="stroke:#181818;stroke-width:1.0;" x1="575" x2="575" y1="574.5313" y2="634.1406"/><polygon fill="#181818" points="571,624.1406,575,634.1406,579,624.1406,575,628.1406" style="stroke:#181818;stroke-width:1.0;"/><line style="stroke:#181818;stroke-width:1.0;" x1="190.5" x2="190.5" y1="671.75" y2="1052.4688"/><line style="stroke:#181818;stroke-width:1.0;" x1="190.5" x2="370.75" y1="1052.4688" y2="1052.4688"/><polygon fill="#181818" points="360.75,1048.4688,370.75,1052.4688,360.75,1056.4688,364.75,1052.4688" style="stroke:#181818;stroke-width:1.0;"/><line style="stroke:#181818;stroke-width:1.0;" x1="575" x2="575" y1="1022.4688" y2="1052.4688"/><line style="stroke:#181818;stroke-width:1.0;" x1="575" x2="394.75" y1="1052.4688" y2="1052.4688"/><polygon fill="#181818" points="404.75,1048.4688,394.75,1052.4688,404.75,1056.4688,400.75,1052.4688" style="stroke:#181818;stroke-width:1.0;"/><line style="stroke:#181818;stroke-width:1.0;" x1="382.75" x2="382.75" y1="530.3906" y2="562.5313"/><polygon fill="#181818" points="378.75,552.5313,382.75,562.5313,386.75,552.5313,382.75,556.5313" style="stroke:#181818;stroke-width:1.0;"/><line style="stroke:#181818;stroke-width:1.0;" x1="254.75" x2="254.75" y1="1156.2188" y2="1176.2188"/><polygon fill="#181818" points="250.75,1166.2188,254.75,1176.2188,258.75,1166.2188,254.75,1170.2188" style="stroke:#181818;stroke-width:1.0;"/><line style="stroke:#181818;stroke-width:1.0;" x1="510.75" x2="510.75" y1="1156.2188" y2="1176.2188"/><polygon fill="#181818" points="506.75,1166.2188,510.75,1176.2188,514.75,1166.2188,510.75,1170.2188" style="stroke:#181818;stroke-width:1.0;"/><line style="stroke:#181818;stroke-width:1.0;" x1="264.75" x2="254.75" y1="1096.6094" y2="1096.6094"/><line style="stroke:#181818;stroke-width:1.0;" x1="254.75" x2="254.75" y1="1096.6094" y2="1118.6094"/><polygon fill="#181818" points="250.75,1108.6094,254.75,1118.6094,258.75,1108.6094,254.75,1112.6094" style="stroke:#181818;stroke-width:1.0;"/><line style="stroke:#181818;stroke-width:1.0;" x1="500.75" x2="510.75" y1="1096.6094" y2="1096.6094"/><line style="stroke:#181818;stroke-width:1.0;" x1="510.75" x2="510.75" y1="1096.6094" y2="1118.6094"/><polygon fill="#181818" points="506.75,1108.6094,510.75,1118.6094,514.75,1108.6094,510.75,1112.6094" style="stroke:#181818;stroke-width:1.0;"/><line style="stroke:#181818;stroke-width:1.0;" x1="382.75" x2="382.75" y1="1064.4688" y2="1084.6094"/><polygon fill="#181818" points="378.75,1074.6094,382.75,1084.6094,386.75,1074.6094,382.75,1078.6094" style="stroke:#181818;stroke-width:1.0;"/><!--SRC=[nLLBInjH5DxFhpYD2nLSjALqaIwAz265KaIbqELWRkBWP2PChbfR0b712fR65WjkR6dx1yReOCpBlt3kF-evTyRC8nEbgoPaCdFlUNpdEzyzCmtrTSkfcPvPXUUYR6xOSaMyb_EsLN6gmf6mIXVX6R7L_AgqDYsv_T9rvBBrGS23HudTDwuK-JihbhJZhOVtao4zpzsAlHuRqt2lvfcLgWaRTV5MUD9QDUrNPN0TGt8OAE0nTj37SzMaQv- -Fj1DL-tISXi7E5GxV5y4_8b3xAdFU4d_RVHfDU1de0KVhzbV7MWd7mEr2-odWmwme_RLNi4mwjBqf45GARVbEZ3rsggioMVRfWClDecUvUsw55NuQ01zYb72FVM90knoeWxeW0pWJEVZLRMZ7myrue0AohgD0NbYw0HM6MRmLygPIo7J0C_9D7Jhq4_Norm0jZcVtYEhFWPFPq6k2OSY3RZgMHsPFrCroraluW_DoHbsYTT2Ejl8b6AtQMd8sJI2VVhl04VaYuzNU47PA3z1lt6gIxUc7uHT5vJ-0lquUV5E4e1s0btg9IoQ5R7aRf0wm_32ALbbev7VgDWufqy4KXq2Ow4yT1iLEOCds5UjEMB0fyq-bJS0ecI85uKvi4f0n0I4S8Vh3giWivvgJQI6hB4NtN1zKKkpY9U5kU09Qi-2MINKxessGjpV2E0rOzUaQ8Nbf5DV8BGQatuhfAkHaDF4Cv8Ed1GLqtG5iOvEyJl-ZbkPBMd1jKl2MN9BxuHjkrkmHDqI7dSbKTka-dJ31wmcrSnAuf2wSvHJVYiXkiP8SJCqDux-4yeJFQr2WbkXZlfyJWYwdm1xjpY1JtHkRnEdyzy578bn4ZUtYV9MSLv7LVEvxT8Hvfer2jNKbF7GZWOscNCtCr3Jt3JIC5c_EJxP1CJYIAef2SJGZtdAiU9lWBU11cgW9sHpTAYoZHqBLC2lLFqGkw3smlSBHUpfE6bLnZCherEz5X_EFxhtFSqGeHhg_2EbJHYK-SLEBPgsq5saJcdl0Maipt_2n1uxvxdlYrFIA1MVX4qQYxaSpP59BxhntE5i_mi0]--></g></svg>