<?xml version="1.0" encoding="us-ascii" standalone="no"?><svg xmlns="http://www.w3.org/2000/svg" xmlns:xlink="http://www.w3.org/1999/xlink" contentStyleType="text/css" height="2564px" preserveAspectRatio="none" style="width:778px;height:2564px;background:#FFFFFF;" version="1.1" viewBox="0 0 778 2564" width="778px" zoomAndPan="magnify"><defs/><g><text fill="#000000" font-family="sans-serif" font-size="20" font-weight="bold" lengthAdjust="spacing" textLength="546" x="114.875" y="40.7617">"&#1044;&#1080;&#1072;&#1075;&#1088;&#1072;&#1084;&#1084;&#1072; &#1072;&#1082;&#1090;&#1080;&#1074;&#1085;&#1086;&#1089;&#1090;&#1080;: &#1055;&#1088;&#1086;&#1094;&#1077;&#1089;&#1089; &#1074;&#1099;&#1073;&#1086;&#1088;&#1072; &#1087;&#1077;&#1088;&#1089;&#1086;&#1085;&#1072;&#1078;&#1077;&#1081;"</text><ellipse cx="397.75" cy="66.1563" fill="#222222" rx="10" ry="10" style="stroke:#222222;stroke-width:1.0;"/><rect fill="#B0C4DE" height="740.1406" style="stroke:#000000;stroke-width:1.5;" width="408" x="193.75" y="130.2969"/><path d="M290.75,130.2969 L290.75,140.9063 L280.75,150.9063 L193.75,150.9063 " fill="none" style="stroke:#000000;stroke-width:1.5;"/><text fill="#000000" font-family="sans-serif" font-size="14" lengthAdjust="spacing" textLength="87" x="196.75" y="145.8301">GameHandler</text><rect fill="#ADD8E6" height="187.4375" style="stroke:#000000;stroke-width:1.5;" width="388" x="203.75" y="160.9063"/><path d="M301.75,160.9063 L301.75,171.5156 L291.75,181.5156 L203.75,181.5156 " fill="none" style="stroke:#000000;stroke-width:1.5;"/><text fill="#000000" font-family="sans-serif" font-size="14" lengthAdjust="spacing" textLength="88" x="206.75" y="176.4395">GameSession</text><rect fill="#D3D3D3" height="144.8281" style="stroke:#000000;stroke-width:1.5;" width="368" x="213.75" y="191.5156"/><path d="M319.75,191.5156 L319.75,202.125 L309.75,212.125 L213.75,212.125 " fill="none" style="stroke:#000000;stroke-width:1.5;"/><text fill="#000000" font-family="sans-serif" font-size="14" lengthAdjust="spacing" textLength="96" x="216.75" y="207.0488">PlayerManager</text><rect fill="#F1F1F1" height="37.6094" rx="12.5" ry="12.5" style="stroke:#181818;stroke-width:0.5;" width="348" x="223.75" y="229.125"/><text fill="#000000" font-family="sans-serif" font-size="14" lengthAdjust="spacing" textLength="328" x="233.75" y="253.6582">&#1054;&#1087;&#1088;&#1077;&#1076;&#1077;&#1083;&#1080;&#1090;&#1100; &#1080;&#1075;&#1088;&#1086;&#1082;&#1072; &#1082;&#1086;&#1090;&#1086;&#1088;&#1099;&#1081; &#1089;&#1077;&#1081;&#1095;&#1072;&#1089; &#1073;&#1091;&#1076;&#1077;&#1090; &#1093;&#1086;&#1076;&#1080;&#1090;&#1100;</text><rect fill="#F1F1F1" height="37.6094" rx="12.5" ry="12.5" style="stroke:#181818;stroke-width:0.5;" width="131" x="332.25" y="286.7344"/><text fill="#000000" font-family="sans-serif" font-size="14" lengthAdjust="spacing" textLength="111" x="342.25" y="311.2676">&#1055;&#1077;&#1088;&#1077;&#1076;&#1072;&#1090;&#1100; &#1080;&#1075;&#1088;&#1086;&#1082;&#1072;</text><rect fill="#F1F1F1" height="37.6094" rx="12.5" ry="12.5" style="stroke:#181818;stroke-width:0.5;" width="349" x="223.25" y="368.3438"/><text fill="#000000" font-family="sans-serif" font-size="14" lengthAdjust="spacing" textLength="329" x="233.25" y="392.877">&#1055;&#1088;&#1080;&#1089;&#1074;&#1086;&#1080;&#1090;&#1100; &#1074;&#1099;&#1073;&#1088;&#1072;&#1085;&#1085;&#1086;&#1084;&#1091; &#1080;&#1075;&#1088;&#1086;&#1082;&#1091; &#1089;&#1090;&#1072;&#1090;&#1091;&#1089; "&#1040;&#1082;&#1090;&#1080;&#1074;&#1085;&#1086;&#1075;&#1086;"</text><rect fill="#ADD8E6" height="129.8281" style="stroke:#000000;stroke-width:1.5;" width="253" x="271.25" y="415.9531"/><path d="M369.25,415.9531 L369.25,426.5625 L359.25,436.5625 L271.25,436.5625 " fill="none" style="stroke:#000000;stroke-width:1.5;"/><text fill="#000000" font-family="sans-serif" font-size="14" lengthAdjust="spacing" textLength="88" x="274.25" y="431.4863">GameSession</text><rect fill="#D3D3D3" height="87.2188" style="stroke:#000000;stroke-width:1.5;" width="233" x="281.25" y="446.5625"/><path d="M387.25,446.5625 L387.25,457.1719 L377.25,467.1719 L281.25,467.1719 " fill="none" style="stroke:#000000;stroke-width:1.5;"/><text fill="#000000" font-family="sans-serif" font-size="14" lengthAdjust="spacing" textLength="96" x="284.25" y="462.0957">PlayerManager</text><rect fill="#F1F1F1" height="37.6094" rx="12.5" ry="12.5" style="stroke:#181818;stroke-width:0.5;" width="213" x="291.25" y="484.1719"/><text fill="#000000" font-family="sans-serif" font-size="14" lengthAdjust="spacing" textLength="193" x="301.25" y="508.7051">&#1057;&#1086;&#1093;&#1088;&#1072;&#1085;&#1080;&#1090;&#1100; &#1089;&#1090;&#1072;&#1090;&#1091;&#1089; &#1076;&#1083;&#1103; &#1080;&#1075;&#1088;&#1086;&#1082;&#1072;</text><rect fill="#F1F1F1" height="37.6094" rx="12.5" ry="12.5" style="stroke:#181818;stroke-width:0.5;" width="307" x="244.25" y="565.7813"/><text fill="#000000" font-family="sans-serif" font-size="14" lengthAdjust="spacing" textLength="287" x="254.25" y="590.3145">&#1054;&#1087;&#1088;&#1077;&#1076;&#1077;&#1083;&#1080;&#1090;&#1100; &#1089;&#1087;&#1080;&#1089;&#1086;&#1082; &#1076;&#1086;&#1089;&#1090;&#1091;&#1087;&#1085;&#1099;&#1093; &#1087;&#1077;&#1088;&#1089;&#1086;&#1085;&#1072;&#1078;&#1077;&#1081;</text><rect fill="#ADD8E6" height="129.8281" style="stroke:#000000;stroke-width:1.5;" width="256" x="269.75" y="613.3906"/><path d="M367.75,613.3906 L367.75,624 L357.75,634 L269.75,634 " fill="none" style="stroke:#000000;stroke-width:1.5;"/><text fill="#000000" font-family="sans-serif" font-size="14" lengthAdjust="spacing" textLength="88" x="272.75" y="628.9238">GameSession</text><rect fill="#D3D3D3" height="87.2188" style="stroke:#000000;stroke-width:1.5;" width="236" x="279.75" y="644"/><path d="M362.75,644 L362.75,654.6094 L352.75,664.6094 L279.75,664.6094 " fill="none" style="stroke:#000000;stroke-width:1.5;"/><text fill="#000000" font-family="sans-serif" font-size="14" lengthAdjust="spacing" textLength="73" x="282.75" y="659.5332">&#1055;&#1077;&#1088;&#1089;&#1086;&#1085;&#1072;&#1078;&#1080;</text><rect fill="#F1F1F1" height="37.6094" rx="12.5" ry="12.5" style="stroke:#181818;stroke-width:0.5;" width="216" x="289.75" y="681.6094"/><text fill="#000000" font-family="sans-serif" font-size="14" lengthAdjust="spacing" textLength="196" x="299.75" y="706.1426">&#1055;&#1077;&#1088;&#1077;&#1076;&#1072;&#1090;&#1100; &#1089;&#1087;&#1080;&#1089;&#1086;&#1082; &#1087;&#1077;&#1088;&#1089;&#1086;&#1085;&#1072;&#1078;&#1077;&#1081;</text><rect fill="#F1F1F1" height="37.6094" rx="12.5" ry="12.5" style="stroke:#181818;stroke-width:0.5;" width="216" x="289.75" y="763.2188"/><text fill="#000000" font-family="sans-serif" font-size="14" lengthAdjust="spacing" textLength="196" x="299.75" y="787.752">&#1055;&#1077;&#1088;&#1077;&#1081;&#1090;&#1080; &#1074; &#1086;&#1078;&#1080;&#1076;&#1072;&#1085;&#1080;&#1080; &#1089;&#1086;&#1073;&#1099;&#1090;&#1080;&#1103;</text><rect fill="#F1F1F1" height="37.6094" rx="12.5" ry="12.5" style="stroke:#181818;stroke-width:0.5;" width="304" x="245.75" y="820.8281"/><text fill="#000000" font-family="sans-serif" font-size="14" lengthAdjust="spacing" textLength="284" x="255.75" y="845.3613">&#1054;&#1090;&#1087;&#1088;&#1072;&#1074;&#1080;&#1090;&#1100; &#1080;&#1085;&#1092;&#1086;&#1088;&#1084;&#1072;&#1094;&#1080;&#1080; &#1080; &#1076;&#1072;&#1085;&#1085;&#1099;&#1077; &#1082;&#1083;&#1080;&#1077;&#1085;&#1090;&#1091;</text><rect fill="#FAFAD2" height="144.8281" style="stroke:#000000;stroke-width:1.5;" width="499" x="148.25" y="880.4375"/><path d="M233.25,880.4375 L233.25,891.0469 L223.25,901.0469 L148.25,901.0469 " fill="none" style="stroke:#000000;stroke-width:1.5;"/><text fill="#000000" font-family="sans-serif" font-size="14" lengthAdjust="spacing" textLength="75" x="151.25" y="895.9707">GameRoom</text><rect fill="#F1F1F1" height="37.6094" rx="12.5" ry="12.5" style="stroke:#181818;stroke-width:0.5;" width="326" x="234.75" y="918.0469"/><text fill="#000000" font-family="sans-serif" font-size="14" lengthAdjust="spacing" textLength="306" x="244.75" y="942.5801">&#1054;&#1090;&#1087;&#1088;&#1072;&#1074;&#1080;&#1090;&#1100; &#1080;&#1085;&#1092;&#1086;&#1088;&#1084;&#1072;&#1094;&#1080;&#1080; &#1086;&#1073; "&#1040;&#1082;&#1090;&#1080;&#1074;&#1085;&#1086;&#1084; &#1080;&#1075;&#1088;&#1086;&#1082;&#1077;"</text><rect fill="#F1F1F1" height="37.6094" rx="12.5" ry="12.5" style="stroke:#181818;stroke-width:0.5;" width="479" x="158.25" y="975.6563"/><text fill="#000000" font-family="sans-serif" font-size="14" lengthAdjust="spacing" textLength="459" x="168.25" y="1000.1895">&#1054;&#1090;&#1087;&#1088;&#1072;&#1074;&#1080;&#1090;&#1100; &#1080;&#1085;&#1092;&#1086;&#1088;&#1084;&#1072;&#1094;&#1080;&#1080; &#1076;&#1083;&#1103; "&#1040;&#1082;&#1090;&#1080;&#1074;&#1085;&#1086;&#1075;&#1086; &#1080;&#1075;&#1088;&#1086;&#1082;&#1077;" (&#1089;&#1087;&#1080;&#1089;&#1086;&#1082; &#1087;&#1077;&#1088;&#1089;&#1086;&#1085;&#1072;&#1078;&#1077;&#1081;)</text><rect fill="#90EE90" height="202.4375" style="stroke:#000000;stroke-width:1.5;" width="433" x="181.25" y="1035.2656"/><path d="M227.25,1035.2656 L227.25,1045.875 L217.25,1055.875 L181.25,1055.875 " fill="none" style="stroke:#000000;stroke-width:1.5;"/><text fill="#000000" font-family="sans-serif" font-size="14" lengthAdjust="spacing" textLength="36" x="184.25" y="1050.7988">Client</text><rect fill="#F1F1F1" height="37.6094" rx="12.5" ry="12.5" style="stroke:#181818;stroke-width:0.5;" width="413" x="191.25" y="1072.875"/><text fill="#000000" font-family="sans-serif" font-size="14" lengthAdjust="spacing" textLength="393" x="201.25" y="1097.4082">&#1055;&#1086;&#1083;&#1091;&#1095;&#1080;&#1090;&#1100; &#1076;&#1072;&#1085;&#1085;&#1099;&#1077; &#1086;&#1073; &#1072;&#1082;&#1090;&#1080;&#1074;&#1085;&#1086;&#1084; &#1080;&#1075;&#1088;&#1086;&#1082;&#1077; &#1080; &#1089;&#1087;&#1080;&#1089;&#1086;&#1082; &#1087;&#1077;&#1088;&#1089;&#1086;&#1085;&#1072;&#1078;&#1077;&#1081;</text><rect fill="#F1F1F1" height="37.6094" rx="12.5" ry="12.5" style="stroke:#181818;stroke-width:0.5;" width="154" x="320.75" y="1130.4844"/><text fill="#000000" font-family="sans-serif" font-size="14" lengthAdjust="spacing" textLength="134" x="330.75" y="1155.0176">&#1042;&#1099;&#1073;&#1088;&#1072;&#1090;&#1100; &#1087;&#1077;&#1088;&#1089;&#1086;&#1085;&#1072;&#1078;&#1072;</text><rect fill="#F1F1F1" height="37.6094" rx="12.5" ry="12.5" style="stroke:#181818;stroke-width:0.5;" width="293" x="251.25" y="1188.0938"/><text fill="#000000" font-family="sans-serif" font-size="14" lengthAdjust="spacing" textLength="273" x="261.25" y="1212.627">&#1054;&#1090;&#1087;&#1088;&#1072;&#1074;&#1080;&#1090;&#1100; &#1089;&#1086;&#1073;&#1099;&#1090;&#1080;&#1077; "&#1042;&#1099;&#1073;&#1088;&#1072;&#1083; &#1087;&#1077;&#1088;&#1089;&#1086;&#1085;&#1072;&#1078;&#1072;"</text><rect fill="#E0FFFF" height="238.5781" style="stroke:#000000;stroke-width:1.5;" width="610.5" x="130.25" y="1247.7031"/><path d="M222.25,1247.7031 L222.25,1258.3125 L212.25,1268.3125 L130.25,1268.3125 " fill="none" style="stroke:#000000;stroke-width:1.5;"/><text fill="#000000" font-family="sans-serif" font-size="14" lengthAdjust="spacing" textLength="82" x="133.25" y="1263.2363">EventSystem</text><rect fill="#F1F1F1" height="37.6094" rx="12.5" ry="12.5" style="stroke:#181818;stroke-width:0.5;" width="363" x="216.25" y="1285.3125"/><text fill="#000000" font-family="sans-serif" font-size="14" lengthAdjust="spacing" textLength="343" x="226.25" y="1309.8457">&#1055;&#1086;&#1083;&#1091;&#1095;&#1080;&#1090;&#1100; &#1080; &#1088;&#1072;&#1079;&#1086;&#1073;&#1088;&#1072;&#1090;&#1100; &#1089;&#1086;&#1073;&#1099;&#1090;&#1080;&#1077; "&#1042;&#1099;&#1073;&#1088;&#1072;&#1083; &#1087;&#1077;&#1088;&#1089;&#1086;&#1085;&#1072;&#1078;&#1072;</text><polygon fill="#F1F1F1" points="267.25,1343.0625,528.25,1343.0625,540.25,1355.0625,528.25,1367.0625,267.25,1367.0625,255.25,1355.0625,267.25,1343.0625" style="stroke:#181818;stroke-width:0.5;"/><text fill="#000000" font-family="sans-serif" font-size="14" lengthAdjust="spacing" textLength="261" x="267.25" y="1360.791">&#1057;&#1086;&#1073;&#1099;&#1090;&#1080;&#1077; &#1079;&#1072;&#1088;&#1077;&#1075;&#1080;&#1089;&#1090;&#1088;&#1080;&#1088;&#1086;&#1074;&#1072;&#1085;&#1086; &#1074; &#1089;&#1080;&#1089;&#1090;&#1077;&#1084;&#1077;?</text><text fill="#000000" font-family="sans-serif" font-size="16" lengthAdjust="spacing" textLength="24" x="231.25" y="1351.5469">&#1085;&#1077;&#1090;</text><text fill="#000000" font-family="sans-serif" font-size="16" lengthAdjust="spacing" textLength="18" x="540.25" y="1351.5469">&#1076;&#1072;</text><rect fill="#FFC0CB" height="55.2188" rx="12.5" ry="12.5" style="stroke:#181818;stroke-width:0.5;" width="190" x="150.25" y="1377.0625"/><text fill="#000000" font-family="sans-serif" font-size="14" lengthAdjust="spacing" textLength="120" x="160.25" y="1401.5957">&#1054;&#1096;&#1080;&#1073;&#1082;&#1072; "&#1057;&#1086;&#1073;&#1099;&#1090;&#1080;&#1077;</text><text fill="#000000" font-family="sans-serif" font-size="14" lengthAdjust="spacing" textLength="170" x="160.25" y="1419.2051">&#1072;&#1074;&#1090;&#1086;&#1088;&#1080;&#1079;&#1072;&#1094;&#1080;&#1080; &#1085;&#1077; &#1085;&#1072;&#1081;&#1076;&#1077;&#1085;&#1086;"</text><ellipse cx="245.25" cy="1463.2813" fill="none" rx="11" ry="11" style="stroke:#222222;stroke-width:1.0;"/><ellipse cx="245.25" cy="1463.2813" fill="#222222" rx="6" ry="6" style="stroke:#222222;stroke-width:1.0;"/><rect fill="#F1F1F1" height="55.2188" rx="12.5" ry="12.5" style="stroke:#181818;stroke-width:0.5;" width="344" x="378.25" y="1377.0625"/><text fill="#000000" font-family="sans-serif" font-size="14" lengthAdjust="spacing" textLength="324" x="388.25" y="1401.5957">&#1055;&#1077;&#1088;&#1077;&#1076;&#1072;&#1090;&#1100; &#1090;&#1077;&#1082;&#1091;&#1097;&#1077;&#1077; &#1089;&#1086;&#1073;&#1099;&#1090;&#1080;&#1077; "&#1042;&#1099;&#1073;&#1088;&#1072;&#1083; &#1087;&#1077;&#1088;&#1089;&#1086;&#1085;&#1072;&#1078;&#1072;"</text><text fill="#000000" font-family="sans-serif" font-size="14" lengthAdjust="spacing" textLength="235" x="388.25" y="1419.2051">&#1076;&#1083;&#1103; GameHandler &#1095;&#1077;&#1088;&#1077;&#1079; GameRoom</text><rect fill="#FAFAD2" height="333.7969" style="stroke:#000000;stroke-width:1.5;" width="548" x="123.75" y="1496.2813"/><path d="M208.75,1496.2813 L208.75,1506.8906 L198.75,1516.8906 L123.75,1516.8906 " fill="none" style="stroke:#000000;stroke-width:1.5;"/><text fill="#000000" font-family="sans-serif" font-size="14" lengthAdjust="spacing" textLength="75" x="126.75" y="1511.8145">GameRoom</text><rect fill="#F1F1F1" height="37.6094" rx="12.5" ry="12.5" style="stroke:#181818;stroke-width:0.5;" width="282" x="256.75" y="1533.8906"/><text fill="#000000" font-family="sans-serif" font-size="14" lengthAdjust="spacing" textLength="262" x="266.75" y="1558.4238">&#1042;&#1099;&#1087;&#1086;&#1083;&#1085;&#1080;&#1090;&#1100; &#1072;&#1074;&#1090;&#1086;&#1088;&#1080;&#1079;&#1072;&#1094;&#1080;&#1102; &#1087;&#1086;&#1083;&#1100;&#1079;&#1086;&#1074;&#1072;&#1090;&#1077;&#1083;&#1103;</text><rect fill="#E0FFFF" height="87.2188" style="stroke:#000000;stroke-width:1.5;" width="244" x="275.75" y="1581.5"/><path d="M367.75,1581.5 L367.75,1592.1094 L357.75,1602.1094 L275.75,1602.1094 " fill="none" style="stroke:#000000;stroke-width:1.5;"/><text fill="#000000" font-family="sans-serif" font-size="14" lengthAdjust="spacing" textLength="82" x="278.75" y="1597.0332">EventSystem</text><rect fill="#F1F1F1" height="37.6094" rx="12.5" ry="12.5" style="stroke:#181818;stroke-width:0.5;" width="224" x="285.75" y="1619.1094"/><text fill="#000000" font-family="sans-serif" font-size="14" lengthAdjust="spacing" textLength="204" x="295.75" y="1643.6426">&#1042;&#1099;&#1079;&#1074;&#1072;&#1090;&#1100; &#1089;&#1086;&#1073;&#1099;&#1090;&#1080;&#1077; &#1072;&#1074;&#1090;&#1086;&#1088;&#1080;&#1079;&#1072;&#1094;&#1080;&#1080;</text><polygon fill="#F1F1F1" points="311.25,1688.8594,484.25,1688.8594,496.25,1700.8594,484.25,1712.8594,311.25,1712.8594,299.25,1700.8594,311.25,1688.8594" style="stroke:#181818;stroke-width:0.5;"/><text fill="#000000" font-family="sans-serif" font-size="14" lengthAdjust="spacing" textLength="173" x="311.25" y="1706.5879">&#1059;&#1076;&#1072;&#1083;&#1086;&#1089;&#1100; &#1072;&#1074;&#1090;&#1086;&#1088;&#1080;&#1079;&#1086;&#1074;&#1072;&#1090;&#1100;&#1089;&#1103;?</text><text fill="#000000" font-family="sans-serif" font-size="16" lengthAdjust="spacing" textLength="24" x="275.25" y="1697.3438">&#1085;&#1077;&#1090;</text><text fill="#000000" font-family="sans-serif" font-size="16" lengthAdjust="spacing" textLength="18" x="496.25" y="1697.3438">&#1076;&#1072;</text><rect fill="#FFC0CB" height="37.6094" rx="12.5" ry="12.5" style="stroke:#181818;stroke-width:0.5;" width="244" x="143.75" y="1722.8594"/><text fill="#000000" font-family="sans-serif" font-size="14" lengthAdjust="spacing" textLength="224" x="153.75" y="1747.3926">&#1055;&#1077;&#1088;&#1077;&#1076;&#1072;&#1090;&#1100; &#1086;&#1096;&#1080;&#1073;&#1082;&#1091; &#1086;&#1090; &#1072;&#1074;&#1090;&#1086;&#1088;&#1080;&#1079;&#1072;&#1094;&#1080;&#1080;</text><ellipse cx="265.75" cy="1791.4688" fill="none" rx="11" ry="11" style="stroke:#222222;stroke-width:1.0;"/><ellipse cx="265.75" cy="1791.4688" fill="#222222" rx="6" ry="6" style="stroke:#222222;stroke-width:1.0;"/><rect fill="#F1F1F1" height="37.6094" rx="12.5" ry="12.5" style="stroke:#181818;stroke-width:0.5;" width="244" x="407.75" y="1722.8594"/><text fill="#000000" font-family="sans-serif" font-size="14" lengthAdjust="spacing" textLength="224" x="417.75" y="1747.3926">&#1055;&#1086;&#1083;&#1091;&#1095;&#1080;&#1090;&#1100; &#1076;&#1072;&#1085;&#1085;&#1099;&#1077; &#1086; &#1087;&#1086;&#1083;&#1100;&#1079;&#1086;&#1074;&#1072;&#1090;&#1077;&#1083;&#1080;</text><rect fill="#F1F1F1" height="37.6094" rx="12.5" ry="12.5" style="stroke:#181818;stroke-width:0.5;" width="193" x="433.25" y="1780.4688"/><text fill="#000000" font-family="sans-serif" font-size="14" lengthAdjust="spacing" textLength="173" x="443.25" y="1805.002">&#1047;&#1072;&#1087;&#1091;&#1089;&#1082; &#1074;&#1099;&#1073;&#1086;&#1088;&#1072; &#1087;&#1077;&#1088;&#1089;&#1086;&#1085;&#1072;&#1078;&#1072;</text><rect fill="#B0C4DE" height="591.7656" style="stroke:#000000;stroke-width:1.5;" width="698.25" x="36" y="1840.0781"/><path d="M133,1840.0781 L133,1850.6875 L123,1860.6875 L36,1860.6875 " fill="none" style="stroke:#000000;stroke-width:1.5;"/><text fill="#000000" font-family="sans-serif" font-size="14" lengthAdjust="spacing" textLength="87" x="39" y="1855.6113">GameHandler</text><rect fill="#F1F1F1" height="37.6094" rx="12.5" ry="12.5" style="stroke:#181818;stroke-width:0.5;" width="458" x="168.75" y="1877.6875"/><text fill="#000000" font-family="sans-serif" font-size="14" lengthAdjust="spacing" textLength="438" x="178.75" y="1902.2207">&#1055;&#1086;&#1083;&#1091;&#1095;&#1080;&#1090;&#1100; &#1076;&#1072;&#1085;&#1085;&#1099;&#1077; &#1086; &#1074;&#1099;&#1073;&#1088;&#1072;&#1085;&#1085;&#1086;&#1084; &#1087;&#1077;&#1088;&#1089;&#1086;&#1085;&#1072;&#1078;&#1077;, &#1086;&#1073; &#1080;&#1075;&#1088;&#1086;&#1082;&#1077; &#1080; &#1086; &#1089;&#1086;&#1073;&#1099;&#1090;&#1080;&#1080;</text><polygon fill="#F1F1F1" points="280.75,1935.4375,514.75,1935.4375,526.75,1947.4375,514.75,1959.4375,280.75,1959.4375,268.75,1947.4375,280.75,1935.4375" style="stroke:#181818;stroke-width:0.5;"/><text fill="#000000" font-family="sans-serif" font-size="14" lengthAdjust="spacing" textLength="234" x="280.75" y="1953.166">&#1069;&#1090;&#1086; &#1089;&#1086;&#1073;&#1099;&#1090;&#1080;&#1077; "&#1042;&#1099;&#1073;&#1086;&#1088;&#1072; &#1087;&#1077;&#1088;&#1089;&#1086;&#1085;&#1072;&#1078;&#1072;"?</text><text fill="#000000" font-family="sans-serif" font-size="16" lengthAdjust="spacing" textLength="24" x="244.75" y="1943.9219">&#1085;&#1077;&#1090;</text><text fill="#000000" font-family="sans-serif" font-size="16" lengthAdjust="spacing" textLength="18" x="526.75" y="1943.9219">&#1076;&#1072;</text><rect fill="#FFC0CB" height="37.6094" rx="12.5" ry="12.5" style="stroke:#181818;stroke-width:0.5;" width="377" x="48" y="1969.4375"/><text fill="#000000" font-family="sans-serif" font-size="14" lengthAdjust="spacing" textLength="357" x="58" y="1993.9707">&#1054;&#1096;&#1080;&#1073;&#1082;&#1072; "&#1057;&#1086;&#1073;&#1099;&#1090;&#1080;&#1077; &#1085;&#1077; &#1103;&#1074;&#1083;&#1103;&#1077;&#1090;&#1089;&#1103; '&#1042;&#1099;&#1073;&#1086;&#1088;&#1086;&#1084; &#1087;&#1077;&#1088;&#1089;&#1086;&#1085;&#1072;&#1078;&#1072;'"</text><ellipse cx="236.5" cy="2038.0469" fill="none" rx="11" ry="11" style="stroke:#222222;stroke-width:1.0;"/><ellipse cx="236.5" cy="2038.0469" fill="#222222" rx="6" ry="6" style="stroke:#222222;stroke-width:1.0;"/><rect fill="#F1F1F1" height="37.6094" rx="12.5" ry="12.5" style="stroke:#181818;stroke-width:0.5;" width="228" x="445" y="1969.4375"/><text fill="#000000" font-family="sans-serif" font-size="14" lengthAdjust="spacing" textLength="208" x="455" y="1993.9707">&#1055;&#1088;&#1086;&#1074;&#1077;&#1088;&#1080;&#1090;&#1100; &#1085;&#1072; &#1040;&#1082;&#1090;&#1080;&#1074;&#1085;&#1086;&#1075;&#1086; &#1080;&#1075;&#1088;&#1086;&#1082;&#1072;</text><polygon fill="#F1F1F1" points="328.75,2069.1875,466.75,2069.1875,478.75,2081.1875,466.75,2093.1875,328.75,2093.1875,316.75,2081.1875,328.75,2069.1875" style="stroke:#181818;stroke-width:0.5;"/><text fill="#000000" font-family="sans-serif" font-size="14" lengthAdjust="spacing" textLength="138" x="328.75" y="2086.916">&#1069;&#1090;&#1086; &#1072;&#1082;&#1090;&#1080;&#1074;&#1085;&#1099;&#1081; &#1080;&#1075;&#1088;&#1086;&#1082;?</text><text fill="#000000" font-family="sans-serif" font-size="16" lengthAdjust="spacing" textLength="24" x="292.75" y="2077.6719">&#1085;&#1077;&#1090;</text><text fill="#000000" font-family="sans-serif" font-size="16" lengthAdjust="spacing" textLength="18" x="478.75" y="2077.6719">&#1076;&#1072;</text><rect fill="#FFC0CB" height="37.6094" rx="12.5" ry="12.5" style="stroke:#181818;stroke-width:0.5;" width="323" x="69.75" y="2103.1875"/><text fill="#000000" font-family="sans-serif" font-size="14" lengthAdjust="spacing" textLength="303" x="79.75" y="2127.7207">&#1054;&#1096;&#1080;&#1073;&#1082;&#1072; "&#1042;&#1099; &#1085;&#1077; &#1103;&#1074;&#1083;&#1103;&#1077;&#1090;&#1077;&#1089;&#1100; &#1072;&#1082;&#1090;&#1080;&#1074;&#1085;&#1099;&#1084; &#1080;&#1075;&#1088;&#1086;&#1082;&#1086;&#1084;"</text><ellipse cx="231.25" cy="2171.7969" fill="none" rx="11" ry="11" style="stroke:#222222;stroke-width:1.0;"/><ellipse cx="231.25" cy="2171.7969" fill="#222222" rx="6" ry="6" style="stroke:#222222;stroke-width:1.0;"/><rect fill="#F1F1F1" height="37.6094" rx="12.5" ry="12.5" style="stroke:#181818;stroke-width:0.5;" width="303" x="412.75" y="2103.1875"/><text fill="#000000" font-family="sans-serif" font-size="14" lengthAdjust="spacing" textLength="283" x="422.75" y="2127.7207">&#1055;&#1086;&#1083;&#1091;&#1095;&#1080;&#1090;&#1100; &#1076;&#1072;&#1085;&#1085;&#1099;&#1077; &#1086; &#1074;&#1099;&#1073;&#1088;&#1072;&#1085;&#1085;&#1086;&#1084; &#1087;&#1077;&#1088;&#1089;&#1086;&#1085;&#1072;&#1078;&#1077;</text><rect fill="#ADD8E6" height="129.8281" style="stroke:#000000;stroke-width:1.5;" width="258" x="268.75" y="2192.7969"/><path d="M366.75,2192.7969 L366.75,2203.4063 L356.75,2213.4063 L268.75,2213.4063 " fill="none" style="stroke:#000000;stroke-width:1.5;"/><text fill="#000000" font-family="sans-serif" font-size="14" lengthAdjust="spacing" textLength="88" x="271.75" y="2208.3301">GameSession</text><rect fill="#D3D3D3" height="87.2188" style="stroke:#000000;stroke-width:1.5;" width="238" x="278.75" y="2223.4063"/><path d="M361.75,2223.4063 L361.75,2234.0156 L351.75,2244.0156 L278.75,2244.0156 " fill="none" style="stroke:#000000;stroke-width:1.5;"/><text fill="#000000" font-family="sans-serif" font-size="14" lengthAdjust="spacing" textLength="73" x="281.75" y="2238.9395">&#1055;&#1077;&#1088;&#1089;&#1086;&#1085;&#1072;&#1078;&#1080;</text><rect fill="#F1F1F1" height="37.6094" rx="12.5" ry="12.5" style="stroke:#181818;stroke-width:0.5;" width="218" x="288.75" y="2261.0156"/><text fill="#000000" font-family="sans-serif" font-size="14" lengthAdjust="spacing" textLength="198" x="298.75" y="2285.5488">&#1059;&#1076;&#1072;&#1083;&#1080;&#1090;&#1100; &#1080;&#1079; &#1089;&#1087;&#1080;&#1089;&#1082;&#1072; &#1087;&#1077;&#1088;&#1089;&#1086;&#1085;&#1072;&#1078;&#1072;</text><rect fill="#FAFAD2" height="87.2188" style="stroke:#000000;stroke-width:1.5;" width="358" x="218.75" y="2332.625"/><path d="M303.75,2332.625 L303.75,2343.2344 L293.75,2353.2344 L218.75,2353.2344 " fill="none" style="stroke:#000000;stroke-width:1.5;"/><text fill="#000000" font-family="sans-serif" font-size="14" lengthAdjust="spacing" textLength="75" x="221.75" y="2348.1582">GameRoom</text><rect fill="#F1F1F1" height="37.6094" rx="12.5" ry="12.5" style="stroke:#181818;stroke-width:0.5;" width="338" x="228.75" y="2370.2344"/><text fill="#000000" font-family="sans-serif" font-size="14" lengthAdjust="spacing" textLength="318" x="238.75" y="2394.7676">&#1057;&#1086;&#1086;&#1073;&#1097;&#1080;&#1090;&#1100; &#1074;&#1089;&#1077;&#1084; &#1080;&#1075;&#1088;&#1086;&#1082;&#1072; &#1086; &#1074;&#1099;&#1073;&#1088;&#1072;&#1085;&#1085;&#1086;&#1084; &#1087;&#1077;&#1088;&#1089;&#1086;&#1085;&#1072;&#1078;&#1077;</text><polygon fill="#F1F1F1" points="295.25,96.2969,500.25,96.2969,512.25,108.2969,500.25,120.2969,295.25,120.2969,283.25,108.2969,295.25,96.2969" style="stroke:#181818;stroke-width:0.5;"/><text fill="#000000" font-family="sans-serif" font-size="14" lengthAdjust="spacing" textLength="205" x="295.25" y="114.0254">&#1059; &#1074;&#1089;&#1077;&#1093; &#1080;&#1075;&#1088;&#1086;&#1082;&#1086;&#1074; &#1077;&#1089;&#1090;&#1100; &#1087;&#1077;&#1088;&#1089;&#1086;&#1085;&#1072;&#1078;?</text><text fill="#000000" font-family="sans-serif" font-size="16" lengthAdjust="spacing" textLength="31" x="252.25" y="104.7813">&#1053;&#1045;&#1058;</text><rect fill="#F1F1F1" height="37.6094" rx="12.5" ry="12.5" style="stroke:#181818;stroke-width:0.5;" width="227" x="284.25" y="2473.8438"/><text fill="#000000" font-family="sans-serif" font-size="14" lengthAdjust="spacing" textLength="207" x="294.25" y="2498.377">&#1055;&#1077;&#1088;&#1077;&#1093;&#1086;&#1076; &#1082; &#1101;&#1090;&#1072;&#1087;&#1091; "&#1056;&#1072;&#1079;&#1076;&#1072;&#1095;&#1072; &#1082;&#1072;&#1088;&#1090;"</text><ellipse cx="397.75" cy="2542.4531" fill="none" rx="11" ry="11" style="stroke:#222222;stroke-width:1.0;"/><ellipse cx="397.75" cy="2542.4531" fill="#222222" rx="6" ry="6" style="stroke:#222222;stroke-width:1.0;"/><line style="stroke:#181818;stroke-width:1.0;" x1="397.75" x2="397.75" y1="266.7344" y2="286.7344"/><polygon fill="#181818" points="393.75,276.7344,397.75,286.7344,401.75,276.7344,397.75,280.7344" style="stroke:#181818;stroke-width:1.0;"/><line style="stroke:#181818;stroke-width:1.0;" x1="397.75" x2="397.75" y1="324.3438" y2="368.3438"/><polygon fill="#181818" points="393.75,358.3438,397.75,368.3438,401.75,358.3438,397.75,362.3438" style="stroke:#181818;stroke-width:1.0;"/><line style="stroke:#181818;stroke-width:1.0;" x1="397.75" x2="397.75" y1="405.9531" y2="484.1719"/><polygon fill="#181818" points="393.75,474.1719,397.75,484.1719,401.75,474.1719,397.75,478.1719" style="stroke:#181818;stroke-width:1.0;"/><line style="stroke:#181818;stroke-width:1.0;" x1="397.75" x2="397.75" y1="521.7813" y2="565.7813"/><polygon fill="#181818" points="393.75,555.7813,397.75,565.7813,401.75,555.7813,397.75,559.7813" style="stroke:#181818;stroke-width:1.0;"/><line style="stroke:#181818;stroke-width:1.0;" x1="397.75" x2="397.75" y1="603.3906" y2="681.6094"/><polygon fill="#181818" points="393.75,671.6094,397.75,681.6094,401.75,671.6094,397.75,675.6094" style="stroke:#181818;stroke-width:1.0;"/><line style="stroke:#181818;stroke-width:1.0;" x1="397.75" x2="397.75" y1="719.2188" y2="763.2188"/><polygon fill="#181818" points="393.75,753.2188,397.75,763.2188,401.75,753.2188,397.75,757.2188" style="stroke:#181818;stroke-width:1.0;"/><line style="stroke:#181818;stroke-width:1.0;" x1="397.75" x2="397.75" y1="800.8281" y2="820.8281"/><polygon fill="#181818" points="393.75,810.8281,397.75,820.8281,401.75,810.8281,397.75,814.8281" style="stroke:#181818;stroke-width:1.0;"/><line style="stroke:#181818;stroke-width:1.0;" x1="397.75" x2="397.75" y1="955.6563" y2="975.6563"/><polygon fill="#181818" points="393.75,965.6563,397.75,975.6563,401.75,965.6563,397.75,969.6563" style="stroke:#181818;stroke-width:1.0;"/><line style="stroke:#181818;stroke-width:1.0;" x1="397.75" x2="397.75" y1="858.4375" y2="918.0469"/><polygon fill="#181818" points="393.75,908.0469,397.75,918.0469,401.75,908.0469,397.75,912.0469" style="stroke:#181818;stroke-width:1.0;"/><line style="stroke:#181818;stroke-width:1.0;" x1="397.75" x2="397.75" y1="1110.4844" y2="1130.4844"/><polygon fill="#181818" points="393.75,1120.4844,397.75,1130.4844,401.75,1120.4844,397.75,1124.4844" style="stroke:#181818;stroke-width:1.0;"/><line style="stroke:#181818;stroke-width:1.0;" x1="397.75" x2="397.75" y1="1168.0938" y2="1188.0938"/><polygon fill="#181818" points="393.75,1178.0938,397.75,1188.0938,401.75,1178.0938,397.75,1182.0938" style="stroke:#181818;stroke-width:1.0;"/><line style="stroke:#181818;stroke-width:1.0;" x1="397.75" x2="397.75" y1="1013.2656" y2="1072.875"/><polygon fill="#181818" points="393.75,1062.875,397.75,1072.875,401.75,1062.875,397.75,1066.875" style="stroke:#181818;stroke-width:1.0;"/><line style="stroke:#181818;stroke-width:1.0;" x1="245.25" x2="245.25" y1="1432.2813" y2="1452.2813"/><polygon fill="#181818" points="241.25,1442.2813,245.25,1452.2813,249.25,1442.2813,245.25,1446.2813" style="stroke:#181818;stroke-width:1.0;"/><line style="stroke:#181818;stroke-width:1.0;" x1="255.25" x2="245.25" y1="1355.0625" y2="1355.0625"/><line style="stroke:#181818;stroke-width:1.0;" x1="245.25" x2="245.25" y1="1355.0625" y2="1377.0625"/><polygon fill="#181818" points="241.25,1367.0625,245.25,1377.0625,249.25,1367.0625,245.25,1371.0625" style="stroke:#181818;stroke-width:1.0;"/><line style="stroke:#181818;stroke-width:1.0;" x1="540.25" x2="550.25" y1="1355.0625" y2="1355.0625"/><line style="stroke:#181818;stroke-width:1.0;" x1="550.25" x2="550.25" y1="1355.0625" y2="1377.0625"/><polygon fill="#181818" points="546.25,1367.0625,550.25,1377.0625,554.25,1367.0625,550.25,1371.0625" style="stroke:#181818;stroke-width:1.0;"/><line style="stroke:#181818;stroke-width:1.0;" x1="550.25" x2="550.25" y1="1432.2813" y2="1479.2813"/><line style="stroke:#181818;stroke-width:1.0;" x1="550.25" x2="397.75" y1="1479.2813" y2="1479.2813"/><line style="stroke:#181818;stroke-width:1.0;" x1="397.75" x2="397.75" y1="1479.2813" y2="1533.8906"/><polygon fill="#181818" points="393.75,1523.8906,397.75,1533.8906,401.75,1523.8906,397.75,1527.8906" style="stroke:#181818;stroke-width:1.0;"/><line style="stroke:#181818;stroke-width:1.0;" x1="397.75" x2="397.75" y1="1322.9219" y2="1343.0625"/><polygon fill="#181818" points="393.75,1333.0625,397.75,1343.0625,401.75,1333.0625,397.75,1337.0625" style="stroke:#181818;stroke-width:1.0;"/><line style="stroke:#181818;stroke-width:1.0;" x1="397.75" x2="397.75" y1="1225.7031" y2="1285.3125"/><polygon fill="#181818" points="393.75,1275.3125,397.75,1285.3125,401.75,1275.3125,397.75,1279.3125" style="stroke:#181818;stroke-width:1.0;"/><line style="stroke:#181818;stroke-width:1.0;" x1="397.75" x2="397.75" y1="1571.5" y2="1619.1094"/><polygon fill="#181818" points="393.75,1609.1094,397.75,1619.1094,401.75,1609.1094,397.75,1613.1094" style="stroke:#181818;stroke-width:1.0;"/><line style="stroke:#181818;stroke-width:1.0;" x1="265.75" x2="265.75" y1="1760.4688" y2="1780.4688"/><polygon fill="#181818" points="261.75,1770.4688,265.75,1780.4688,269.75,1770.4688,265.75,1774.4688" style="stroke:#181818;stroke-width:1.0;"/><line style="stroke:#181818;stroke-width:1.0;" x1="529.75" x2="529.75" y1="1760.4688" y2="1780.4688"/><polygon fill="#181818" points="525.75,1770.4688,529.75,1780.4688,533.75,1770.4688,529.75,1774.4688" style="stroke:#181818;stroke-width:1.0;"/><line style="stroke:#181818;stroke-width:1.0;" x1="299.25" x2="265.75" y1="1700.8594" y2="1700.8594"/><line style="stroke:#181818;stroke-width:1.0;" x1="265.75" x2="265.75" y1="1700.8594" y2="1722.8594"/><polygon fill="#181818" points="261.75,1712.8594,265.75,1722.8594,269.75,1712.8594,265.75,1716.8594" style="stroke:#181818;stroke-width:1.0;"/><line style="stroke:#181818;stroke-width:1.0;" x1="496.25" x2="529.75" y1="1700.8594" y2="1700.8594"/><line style="stroke:#181818;stroke-width:1.0;" x1="529.75" x2="529.75" y1="1700.8594" y2="1722.8594"/><polygon fill="#181818" points="525.75,1712.8594,529.75,1722.8594,533.75,1712.8594,529.75,1716.8594" style="stroke:#181818;stroke-width:1.0;"/><line style="stroke:#181818;stroke-width:1.0;" x1="529.75" x2="529.75" y1="1818.0781" y2="1823.0781"/><line style="stroke:#181818;stroke-width:1.0;" x1="529.75" x2="397.75" y1="1823.0781" y2="1823.0781"/><line style="stroke:#181818;stroke-width:1.0;" x1="397.75" x2="397.75" y1="1823.0781" y2="1877.6875"/><polygon fill="#181818" points="393.75,1867.6875,397.75,1877.6875,401.75,1867.6875,397.75,1871.6875" style="stroke:#181818;stroke-width:1.0;"/><line style="stroke:#181818;stroke-width:1.0;" x1="397.75" x2="397.75" y1="1656.7188" y2="1688.8594"/><polygon fill="#181818" points="393.75,1678.8594,397.75,1688.8594,401.75,1678.8594,397.75,1682.8594" style="stroke:#181818;stroke-width:1.0;"/><line style="stroke:#181818;stroke-width:1.0;" x1="236.5" x2="236.5" y1="2007.0469" y2="2027.0469"/><polygon fill="#181818" points="232.5,2017.0469,236.5,2027.0469,240.5,2017.0469,236.5,2021.0469" style="stroke:#181818;stroke-width:1.0;"/><line style="stroke:#181818;stroke-width:1.0;" x1="268.75" x2="236.5" y1="1947.4375" y2="1947.4375"/><line style="stroke:#181818;stroke-width:1.0;" x1="236.5" x2="236.5" y1="1947.4375" y2="1969.4375"/><polygon fill="#181818" points="232.5,1959.4375,236.5,1969.4375,240.5,1959.4375,236.5,1963.4375" style="stroke:#181818;stroke-width:1.0;"/><line style="stroke:#181818;stroke-width:1.0;" x1="526.75" x2="559" y1="1947.4375" y2="1947.4375"/><line style="stroke:#181818;stroke-width:1.0;" x1="559" x2="559" y1="1947.4375" y2="1969.4375"/><polygon fill="#181818" points="555,1959.4375,559,1969.4375,563,1959.4375,559,1963.4375" style="stroke:#181818;stroke-width:1.0;"/><line style="stroke:#181818;stroke-width:1.0;" x1="559" x2="559" y1="2007.0469" y2="2054.0469"/><line style="stroke:#181818;stroke-width:1.0;" x1="559" x2="397.75" y1="2054.0469" y2="2054.0469"/><line style="stroke:#181818;stroke-width:1.0;" x1="397.75" x2="397.75" y1="2054.0469" y2="2069.1875"/><polygon fill="#181818" points="393.75,2059.1875,397.75,2069.1875,401.75,2059.1875,397.75,2063.1875" style="stroke:#181818;stroke-width:1.0;"/><line style="stroke:#181818;stroke-width:1.0;" x1="397.75" x2="397.75" y1="1915.2969" y2="1935.4375"/><polygon fill="#181818" points="393.75,1925.4375,397.75,1935.4375,401.75,1925.4375,397.75,1929.4375" style="stroke:#181818;stroke-width:1.0;"/><line style="stroke:#181818;stroke-width:1.0;" x1="231.25" x2="231.25" y1="2140.7969" y2="2160.7969"/><polygon fill="#181818" points="227.25,2150.7969,231.25,2160.7969,235.25,2150.7969,231.25,2154.7969" style="stroke:#181818;stroke-width:1.0;"/><line style="stroke:#181818;stroke-width:1.0;" x1="316.75" x2="231.25" y1="2081.1875" y2="2081.1875"/><line style="stroke:#181818;stroke-width:1.0;" x1="231.25" x2="231.25" y1="2081.1875" y2="2103.1875"/><polygon fill="#181818" points="227.25,2093.1875,231.25,2103.1875,235.25,2093.1875,231.25,2097.1875" style="stroke:#181818;stroke-width:1.0;"/><line style="stroke:#181818;stroke-width:1.0;" x1="478.75" x2="564.25" y1="2081.1875" y2="2081.1875"/><line style="stroke:#181818;stroke-width:1.0;" x1="564.25" x2="564.25" y1="2081.1875" y2="2103.1875"/><polygon fill="#181818" points="560.25,2093.1875,564.25,2103.1875,568.25,2093.1875,564.25,2097.1875" style="stroke:#181818;stroke-width:1.0;"/><line style="stroke:#181818;stroke-width:1.0;" x1="564.25" x2="564.25" y1="2140.7969" y2="2187.7969"/><line style="stroke:#181818;stroke-width:1.0;" x1="564.25" x2="397.75" y1="2187.7969" y2="2187.7969"/><line style="stroke:#181818;stroke-width:1.0;" x1="397.75" x2="397.75" y1="2187.7969" y2="2261.0156"/><polygon fill="#181818" points="393.75,2251.0156,397.75,2261.0156,401.75,2251.0156,397.75,2255.0156" style="stroke:#181818;stroke-width:1.0;"/><line style="stroke:#181818;stroke-width:1.0;" x1="397.75" x2="397.75" y1="2298.625" y2="2370.2344"/><polygon fill="#181818" points="393.75,2360.2344,397.75,2370.2344,401.75,2360.2344,397.75,2364.2344" style="stroke:#181818;stroke-width:1.0;"/><line style="stroke:#181818;stroke-width:1.0;" x1="397.75" x2="397.75" y1="120.2969" y2="229.125"/><polygon fill="#181818" points="393.75,219.125,397.75,229.125,401.75,219.125,397.75,223.125" style="stroke:#181818;stroke-width:1.0;"/><line style="stroke:#181818;stroke-width:1.0;" x1="397.75" x2="397.75" y1="2407.8438" y2="2441.8438"/><line style="stroke:#181818;stroke-width:1.0;" x1="397.75" x2="752.75" y1="2441.8438" y2="2441.8438"/><polygon fill="#181818" points="748.75,1272.2891,752.75,1262.2891,756.75,1272.2891,752.75,1268.2891" style="stroke:#181818;stroke-width:1.0;"/><line style="stroke:#181818;stroke-width:1.0;" x1="752.75" x2="752.75" y1="108.2969" y2="2441.8438"/><line style="stroke:#181818;stroke-width:1.0;" x1="752.75" x2="512.25" y1="108.2969" y2="108.2969"/><polygon fill="#181818" points="522.25,104.2969,512.25,108.2969,522.25,112.2969,518.25,108.2969" style="stroke:#181818;stroke-width:1.0;"/><line style="stroke:#181818;stroke-width:1.0;" x1="283.25" x2="24" y1="108.2969" y2="108.2969"/><polygon fill="#181818" points="20,1258.2891,24,1268.2891,28,1258.2891,24,1262.2891" style="stroke:#181818;stroke-width:1.0;"/><line style="stroke:#181818;stroke-width:1.0;" x1="24" x2="24" y1="108.2969" y2="2453.8438"/><line style="stroke:#181818;stroke-width:1.0;" x1="24" x2="397.75" y1="2453.8438" y2="2453.8438"/><line style="stroke:#181818;stroke-width:1.0;" x1="397.75" x2="397.75" y1="2453.8438" y2="2473.8438"/><polygon fill="#181818" points="393.75,2463.8438,397.75,2473.8438,401.75,2463.8438,397.75,2467.8438" style="stroke:#181818;stroke-width:1.0;"/><line style="stroke:#181818;stroke-width:1.0;" x1="397.75" x2="397.75" y1="76.1563" y2="96.2969"/><polygon fill="#181818" points="393.75,86.2969,397.75,96.2969,401.75,86.2969,397.75,90.2969" style="stroke:#181818;stroke-width:1.0;"/><line style="stroke:#181818;stroke-width:1.0;" x1="397.75" x2="397.75" y1="2511.4531" y2="2531.4531"/><polygon fill="#181818" points="393.75,2521.4531,397.75,2531.4531,401.75,2521.4531,397.75,2525.4531" style="stroke:#181818;stroke-width:1.0;"/><!--SRC=[nLTBRnjL5DxFhxYQBX9BB00X5l6YAYsK1I3KTCDorDmaeuvdel6qmLILyY2Kge4WHDKLbBPh9CUfSPpOuxzmxZ_YEtViUNYkntQe88aT-ywvv_6TSxvxxefetdVz7ITq6kAMt7GUUD5T-MrqmtEt_8Rq8t4FRpAqCgaRzoBteHkrFWlyQDtzJeeFFiez_Ig8fFd9NJVoiaSVlfzN6OR1RhRhOykAM5ZODlr6vzIcCxM7zm5-sm8VBjG1bZiqf5Zjy-SrGIyX4giVg8kLVK4TzOnEiR37EqPOtLFx56D7c_wcBlLjsxAQaHD6rkws2rEhz8OtxKFoI40vMupf0g-Eq3eFr759qVMQ9V238E2l6_ZYsXVkrdQq7adfVU8zaEAsqv2VE_w69qFnICkQv5FHTTbiyd8cQXA_7JejyRNdj6JufUCxMmNTavyr-eD6YA5BR_6wfFCaW2mmm8Be01um0bPzmR5JNpsXDkDtgWvvfpeGwWZoRnC5TOETbuo9jjCksIZAFxQoJrPE0QJFORs3FMCtTVPqpeUSP1gemvnUVD5fPtk7SDQcN_8bGMSKs_N_6ErNmF5ex74IHC55e7EfJfR7nfH4G3NIW44DAzOzW7IDQAYUSVKQoltTmf7aF6VXt8Z9T6KK7Q_qigfSnbhxd771xHcp1so5iSUQLdeAB22WJkfvEB4qqbdgP1qnLDzheW2vW3zO0Vybwe0eTRbJ03vi3XdeHE7Ofn8-WRSX_Jl1nZVIyu9TZUoT86Za05hS3KHHAkv1leYwzbMYIshHq3L5rM9rRi9grLY4KlhYfkVoEVAeaC8OBXo2QyPk5i3cg8iaFnMqI7AyQ2sjqQyJEZ6oUBuLJI3comd6xKmTNHgKsPMOt6mvllZq8H1PRpKZsQZ61N6ocPvsO2zhesNygMVDusxYd7jLs0tTRTrEPumcz3CNCyuTdPAO6mpQz3D83QXxlIQYRUHr5OznFjHIxTTsNFy-0_WZD9_g8yOkMaj56TtawC5oBwlC8Nl4VlSrumqBHDwCWftqY_IQV6YZS6fM1UEmppWlr5FyxowToSpVf6NonpcIbDZgfJsUkIhz3NVJH5zNeWlsSiIbaPuj9lpKpoAHKiUwO3gC0HyRJ84p7QYiHpRSInILwywSmxefQbrtRtINN-hZgXH1FB62XoVpAgmqSSIJakCn0JFDNDyMAgLAZfg1TTx86ht0bX6V_ynHbHDf-mgrCs_CN226qfnbeDBtnemyHS3ONYY8NE0wtNyn_ZCwRYOAzhyWbuGzr0cIWPBdtLnBOYLdqXXWUsL9ZXdJOrTJfOProC5KdgQb_5ecjFAddfx9CmtB0OEGot3eQypnj951yROpiDzjbonIOILi_eTPTS9EwTpKoqQCYpaTEtDOlGBRfxS9NTfFimiHtyu6KnUufV5zF1bD0FJatlixFQVNDIkbrUI-XvbNg9_u1iCCXfBwKyyXJBbFahiZnWPrW6hXAla7]--></g></svg>