<?xml version="1.0" encoding="us-ascii" standalone="no"?><svg xmlns="http://www.w3.org/2000/svg" xmlns:xlink="http://www.w3.org/1999/xlink" contentStyleType="text/css" height="2231px" preserveAspectRatio="none" style="width:1188px;height:2231px;background:#FFFFFF;" version="1.1" viewBox="0 0 1188 2231" width="1188px" zoomAndPan="magnify"><defs/><g><text fill="#000000" font-family="sans-serif" font-size="20" font-weight="bold" lengthAdjust="spacing" textLength="463" x="361.25" y="40.7617">&#1055;&#1088;&#1086;&#1094;&#1077;&#1089;&#1089; &#1072;&#1074;&#1090;&#1086;&#1088;&#1080;&#1079;&#1072;&#1094;&#1080;&#1080; &#1087;&#1086;&#1083;&#1100;&#1079;&#1086;&#1074;&#1072;&#1090;&#1077;&#1083;&#1103; &#1074; &#1089;&#1080;&#1089;&#1090;&#1077;&#1084;&#1077;</text><rect fill="none" height="22.6406" style="stroke:none;stroke-width:1.0;" width="1155.5" x="15" y="58.6113"/><ellipse cx="510.5" cy="96.252" fill="#222222" rx="10" ry="10" style="stroke:#222222;stroke-width:1.0;"/><rect fill="#E0FFFF" height="238.5781" style="stroke:#000000;stroke-width:1.5;" width="533" x="243" y="116.252"/><path d="M335,116.252 L335,126.8613 L325,136.8613 L243,136.8613 " fill="none" style="stroke:#000000;stroke-width:1.5;"/><text fill="#000000" font-family="sans-serif" font-size="14" lengthAdjust="spacing" textLength="82" x="246" y="131.7852">EventSystem</text><rect fill="#F1F1F1" height="37.6094" rx="12.5" ry="12.5" style="stroke:#181818;stroke-width:0.5;" width="316" x="352.5" y="153.8613"/><text fill="#000000" font-family="sans-serif" font-size="14" lengthAdjust="spacing" textLength="296" x="362.5" y="178.3945">&#1055;&#1086;&#1083;&#1091;&#1095;&#1080;&#1090;&#1100; &#1080; &#1088;&#1072;&#1079;&#1086;&#1073;&#1088;&#1072;&#1090;&#1100; &#1089;&#1086;&#1073;&#1099;&#1090;&#1080;&#1077; &#1072;&#1074;&#1090;&#1086;&#1088;&#1080;&#1079;&#1072;&#1094;&#1080;&#1080;</text><polygon fill="#F1F1F1" points="380,211.6113,641,211.6113,653,223.6113,641,235.6113,380,235.6113,368,223.6113,380,211.6113" style="stroke:#181818;stroke-width:0.5;"/><text fill="#000000" font-family="sans-serif" font-size="14" lengthAdjust="spacing" textLength="261" x="380" y="229.3398">&#1057;&#1086;&#1073;&#1099;&#1090;&#1080;&#1077; &#1079;&#1072;&#1088;&#1077;&#1075;&#1080;&#1089;&#1090;&#1088;&#1080;&#1088;&#1086;&#1074;&#1072;&#1085;&#1086; &#1074; &#1089;&#1080;&#1089;&#1090;&#1077;&#1084;&#1077;?</text><text fill="#000000" font-family="sans-serif" font-size="16" lengthAdjust="spacing" textLength="24" x="344" y="220.0957">&#1085;&#1077;&#1090;</text><text fill="#000000" font-family="sans-serif" font-size="16" lengthAdjust="spacing" textLength="18" x="653" y="220.0957">&#1076;&#1072;</text><rect fill="#FFC0CB" height="55.2188" rx="12.5" ry="12.5" style="stroke:#181818;stroke-width:0.5;" width="190" x="263" y="245.6113"/><text fill="#000000" font-family="sans-serif" font-size="14" lengthAdjust="spacing" textLength="120" x="273" y="270.1445">&#1054;&#1096;&#1080;&#1073;&#1082;&#1072; "&#1057;&#1086;&#1073;&#1099;&#1090;&#1080;&#1077;</text><text fill="#000000" font-family="sans-serif" font-size="14" lengthAdjust="spacing" textLength="170" x="273" y="287.7539">&#1072;&#1074;&#1090;&#1086;&#1088;&#1080;&#1079;&#1072;&#1094;&#1080;&#1080; &#1085;&#1077; &#1085;&#1072;&#1081;&#1076;&#1077;&#1085;&#1086;"</text><ellipse cx="358" cy="331.8301" fill="none" rx="11" ry="11" style="stroke:#222222;stroke-width:1.0;"/><ellipse cx="358" cy="331.8301" fill="#222222" rx="6" ry="6" style="stroke:#222222;stroke-width:1.0;"/><rect fill="#F1F1F1" height="55.2188" rx="12.5" ry="12.5" style="stroke:#181818;stroke-width:0.5;" width="186" x="570" y="245.6113"/><text fill="#000000" font-family="sans-serif" font-size="14" lengthAdjust="spacing" textLength="166" x="580" y="270.1445">&#1042;&#1099;&#1087;&#1086;&#1083;&#1085;&#1080;&#1090;&#1100; &#1072;&#1074;&#1090;&#1086;&#1088;&#1080;&#1079;&#1072;&#1094;&#1080;&#1102;</text><text fill="#000000" font-family="sans-serif" font-size="14" lengthAdjust="spacing" textLength="154" x="580" y="287.7539">&#1089; &#1087;&#1086;&#1084;&#1086;&#1097;&#1100;&#1102; GameRoom</text><rect fill="#E0FFFF" height="197.6563" style="stroke:#000000;stroke-width:1.5;" width="302" x="359.5" y="364.8301"/><path d="M444.5,364.8301 L444.5,375.4395 L434.5,385.4395 L359.5,385.4395 " fill="none" style="stroke:#000000;stroke-width:1.5;"/><text fill="#000000" font-family="sans-serif" font-size="14" lengthAdjust="spacing" textLength="75" x="362.5" y="380.3633">GameRoom</text><rect fill="#F1F1F1" height="72.8281" rx="12.5" ry="12.5" style="stroke:#181818;stroke-width:0.5;" width="231" x="395" y="402.4395"/><text fill="#000000" font-family="sans-serif" font-size="14" lengthAdjust="spacing" textLength="119" x="405" y="426.9727">&#1055;&#1086;&#1083;&#1091;&#1095;&#1077;&#1085;&#1099; &#1076;&#1072;&#1085;&#1085;&#1099;&#1077;</text><text fill="#000000" font-family="sans-serif" font-size="14" lengthAdjust="spacing" textLength="195" x="421" y="444.582">(&#1048;&#1084;&#1103;, "&#1072;&#1076;&#1084;&#1080;&#1085; &#1082;&#1086;&#1076;", id &#1057;&#1077;&#1089;&#1089;&#1080;&#1080;)</text><text fill="#000000" font-family="sans-serif" font-size="14" lengthAdjust="spacing" textLength="113" x="421" y="462.1914">&#1076;&#1083;&#1103; &#1072;&#1074;&#1090;&#1086;&#1088;&#1080;&#1079;&#1072;&#1094;&#1080;&#1080;</text><rect fill="#F1F1F1" height="55.2188" rx="12.5" ry="12.5" style="stroke:#181818;stroke-width:0.5;" width="282" x="369.5" y="495.2676"/><text fill="#000000" font-family="sans-serif" font-size="14" lengthAdjust="spacing" textLength="262" x="379.5" y="519.8008">&#1042;&#1099;&#1087;&#1086;&#1083;&#1085;&#1080;&#1090;&#1100; &#1072;&#1074;&#1090;&#1086;&#1088;&#1080;&#1079;&#1072;&#1094;&#1080;&#1102; &#1087;&#1086;&#1083;&#1100;&#1079;&#1086;&#1074;&#1072;&#1090;&#1077;&#1083;&#1103;</text><text fill="#000000" font-family="sans-serif" font-size="14" lengthAdjust="spacing" textLength="116" x="395.5" y="537.4102">&#1095;&#1077;&#1088;&#1077;&#1079; AuthSystem</text><rect fill="#F1F1F1" height="37.6094" rx="12.5" ry="12.5" style="stroke:#181818;stroke-width:0.5;" width="305" x="358" y="582.4863"/><text fill="#000000" font-family="sans-serif" font-size="14" lengthAdjust="spacing" textLength="285" x="368" y="607.0195">&#1055;&#1086;&#1083;&#1091;&#1095;&#1080;&#1090;&#1100; (&#1048;&#1084;&#1103;, "&#1072;&#1076;&#1084;&#1080;&#1085; &#1082;&#1086;&#1076;") &#1080;&#1083;&#1080; id &#1057;&#1077;&#1089;&#1089;&#1080;&#1080;</text><polygon fill="#F1F1F1" points="373.5,640.2363,647.5,640.2363,659.5,652.2363,647.5,664.2363,373.5,664.2363,361.5,652.2363,373.5,640.2363" style="stroke:#181818;stroke-width:0.5;"/><text fill="#000000" font-family="sans-serif" font-size="14" lengthAdjust="spacing" textLength="274" x="373.5" y="657.9648">&#1055;&#1088;&#1086;&#1074;&#1077;&#1088;&#1080;&#1090;&#1100; &#1076;&#1072;&#1085;&#1085;&#1099;&#1093; &#1085;&#1072; &#1085;&#1072;&#1083;&#1080;&#1095;&#1080;&#1077; id &#1089;&#1077;&#1089;&#1089;&#1080;&#1080;?</text><text fill="#000000" font-family="sans-serif" font-size="16" lengthAdjust="spacing" textLength="24" x="337.5" y="648.7207">&#1085;&#1077;&#1090;</text><text fill="#000000" font-family="sans-serif" font-size="16" lengthAdjust="spacing" textLength="18" x="659.5" y="648.7207">&#1076;&#1072;</text><rect fill="#FFC0CB" height="55.2188" rx="12.5" ry="12.5" style="stroke:#181818;stroke-width:0.5;" width="185" x="259" y="684.2363"/><text fill="#000000" font-family="sans-serif" font-size="14" lengthAdjust="spacing" textLength="165" x="269" y="708.7695">&#1054;&#1096;&#1080;&#1073;&#1082;&#1072; "&#1053;&#1077;&#1090; &#1076;&#1072;&#1085;&#1085;&#1099;&#1093; &#1076;&#1083;&#1103;</text><text fill="#000000" font-family="sans-serif" font-size="14" lengthAdjust="spacing" textLength="129" x="273" y="726.3789">&#1074;&#1093;&#1086;&#1076;&#1072; &#1087;&#1086; id &#1057;&#1077;&#1089;&#1089;&#1080;&#1080;"</text><ellipse cx="351.5" cy="770.4551" fill="none" rx="11" ry="11" style="stroke:#222222;stroke-width:1.0;"/><ellipse cx="351.5" cy="770.4551" fill="#222222" rx="6" ry="6" style="stroke:#222222;stroke-width:1.0;"/><polygon fill="#F1F1F1" points="401,801.4551,620,801.4551,632,819.0645,620,836.6738,401,836.6738,389,819.0645,401,801.4551" style="stroke:#181818;stroke-width:0.5;"/><text fill="#000000" font-family="sans-serif" font-size="14" lengthAdjust="spacing" textLength="206" x="401" y="815.9883">"&#1055;&#1086;&#1076;&#1082;&#1083;&#1102;&#1095;&#1077;&#1085;&#1085;&#1099;&#1081; &#1055;&#1086;&#1083;&#1100;&#1079;&#1086;&#1074;&#1072;&#1090;&#1077;&#1083;&#1100;"</text><text fill="#000000" font-family="sans-serif" font-size="14" lengthAdjust="spacing" textLength="215" x="405" y="833.5977">&#1085;&#1072;&#1081;&#1076;&#1077;&#1085; &#1087;&#1086; &#1087;&#1086;&#1089;&#1083;&#1077;&#1076;&#1085;&#1077;&#1081; id &#1089;&#1077;&#1089;&#1089;&#1080;&#1080;?</text><text fill="#000000" font-family="sans-serif" font-size="16" lengthAdjust="spacing" textLength="18" x="371" y="815.5488">&#1076;&#1072;</text><text fill="#000000" font-family="sans-serif" font-size="16" lengthAdjust="spacing" textLength="24" x="632" y="815.5488">&#1085;&#1077;&#1090;</text><rect fill="#F1F1F1" height="55.2188" rx="12.5" ry="12.5" style="stroke:#181818;stroke-width:0.5;" width="259" x="183" y="846.6738"/><text fill="#000000" font-family="sans-serif" font-size="14" lengthAdjust="spacing" textLength="71" x="193" y="871.207">&#1055;&#1088;&#1086;&#1074;&#1077;&#1088;&#1080;&#1090;&#1100;</text><text fill="#000000" font-family="sans-serif" font-size="14" font-weight="bold" lengthAdjust="spacing" textLength="97" x="268" y="871.207">&#1040;&#1050;&#1058;&#1059;&#1040;&#1051;&#1068;&#1053;&#1059;&#1070;</text><text fill="#000000" font-family="sans-serif" font-size="14" lengthAdjust="spacing" textLength="63" x="369" y="871.207">id &#1089;&#1077;&#1089;&#1089;&#1080;&#1102;</text><text fill="#000000" font-family="sans-serif" font-size="14" lengthAdjust="spacing" textLength="124" x="197" y="888.8164">&#1085;&#1072;&#1081;&#1076;&#1077;&#1085;&#1085;&#1086;&#1075;&#1086; &#1080;&#1075;&#1088;&#1086;&#1082;&#1072;</text><polygon fill="#F1F1F1" points="188,922.0332,437,922.0332,449,934.0332,437,946.0332,188,946.0332,176,934.0332,188,922.0332" style="stroke:#181818;stroke-width:0.5;"/><text fill="#000000" font-family="sans-serif" font-size="14" font-weight="bold" lengthAdjust="spacing" textLength="93" x="188" y="939.7617">&#1040;&#1050;&#1058;&#1059;&#1040;&#1051;&#1068;&#1053;&#1040;&#1071;</text><text fill="#000000" font-family="sans-serif" font-size="14" lengthAdjust="spacing" textLength="152" x="285" y="939.7617">id &#1089;&#1077;&#1089;&#1089;&#1080;&#1103; &#1089;&#1091;&#1097;&#1077;&#1089;&#1090;&#1074;&#1091;&#1077;&#1090; ?</text><text fill="#000000" font-family="sans-serif" font-size="16" lengthAdjust="spacing" textLength="27" x="149" y="930.5176">&#1053;&#1077;&#1090;</text><text fill="#000000" font-family="sans-serif" font-size="16" lengthAdjust="spacing" textLength="86" x="449" y="930.5176">&#1057;&#1091;&#1097;&#1077;&#1089;&#1090;&#1074;&#1091;&#1077;&#1090;</text><rect fill="#F1F1F1" height="55.2188" rx="12.5" ry="12.5" style="stroke:#181818;stroke-width:0.5;" width="232" x="50" y="956.0332"/><text fill="#000000" font-family="sans-serif" font-size="14" lengthAdjust="spacing" textLength="212" x="60" y="980.5664">&#1059;&#1089;&#1090;&#1072;&#1085;&#1086;&#1074;&#1080;&#1090;&#1100; &#1072;&#1082;&#1090;&#1091;&#1072;&#1083;&#1100;&#1085;&#1086;&#1102; &#1089;&#1077;&#1089;&#1089;&#1080;&#1102;</text><text fill="#000000" font-family="sans-serif" font-size="14" lengthAdjust="spacing" textLength="201" x="64" y="998.1758">&#1076;&#1083;&#1103; &#1085;&#1072;&#1081;&#1076;&#1077;&#1085;&#1085;&#1086;&#1075;&#1086; &#1087;&#1086;&#1083;&#1100;&#1079;&#1086;&#1074;&#1072;&#1090;&#1077;&#1083;&#1103;</text><rect fill="#98FB98" height="37.6094" rx="12.5" ry="12.5" style="stroke:#181818;stroke-width:0.5;" width="287" x="22.5" y="1031.252"/><text fill="#000000" font-family="sans-serif" font-size="14" lengthAdjust="spacing" textLength="267" x="32.5" y="1055.7852">&#1042;&#1077;&#1088;&#1085;&#1091;&#1090;&#1100; "&#1055;&#1086;&#1076;&#1082;&#1083;&#1102;&#1095;&#1077;&#1085;&#1085;&#1086;&#1075;&#1086; &#1087;&#1086;&#1083;&#1100;&#1079;&#1086;&#1074;&#1072;&#1090;&#1077;&#1083;&#1103;"</text><ellipse cx="166" cy="1099.8613" fill="none" rx="11" ry="11" style="stroke:#222222;stroke-width:1.0;"/><ellipse cx="166" cy="1099.8613" fill="#222222" rx="6" ry="6" style="stroke:#222222;stroke-width:1.0;"/><rect fill="#FFC0CB" height="55.2188" rx="12.5" ry="12.5" style="stroke:#181818;stroke-width:0.5;" width="185" x="366.5" y="956.0332"/><text fill="#000000" font-family="sans-serif" font-size="14" lengthAdjust="spacing" textLength="152" x="376.5" y="980.5664">&#1054;&#1096;&#1080;&#1073;&#1082;&#1072; "&#1048;&#1075;&#1088;&#1086;&#1082; &#1089; &#1090;&#1072;&#1082;&#1080;&#1084;</text><text fill="#000000" font-family="sans-serif" font-size="14" lengthAdjust="spacing" textLength="161" x="380.5" y="998.1758">&#1080;&#1084;&#1077;&#1085;&#1077;&#1084; &#1091;&#1078;&#1077; &#1087;&#1086;&#1076;&#1082;&#1083;&#1102;&#1095;&#1077;&#1085;"</text><ellipse cx="459" cy="1042.252" fill="none" rx="11" ry="11" style="stroke:#222222;stroke-width:1.0;"/><ellipse cx="459" cy="1042.252" fill="#222222" rx="6" ry="6" style="stroke:#222222;stroke-width:1.0;"/><rect fill="#F1F1F1" height="37.6094" rx="12.5" ry="12.5" style="stroke:#181818;stroke-width:0.5;" width="254" x="581.5" y="846.6738"/><text fill="#000000" font-family="sans-serif" font-size="14" lengthAdjust="spacing" textLength="234" x="591.5" y="871.207">&#1042;&#1079;&#1103;&#1090;&#1100; "&#1048;&#1084;&#1103;" &#1080;&#1079; &#1087;&#1077;&#1088;&#1077;&#1076;&#1072;&#1085;&#1085;&#1099;&#1093; &#1076;&#1072;&#1085;&#1085;&#1099;&#1093;</text><rect fill="#F1F1F1" height="37.6094" rx="12.5" ry="12.5" style="stroke:#181818;stroke-width:0.5;" width="121" x="450" y="1130.8613"/><text fill="#000000" font-family="sans-serif" font-size="14" lengthAdjust="spacing" textLength="101" x="460" y="1155.3945">&#1055;&#1088;&#1086;&#1074;&#1077;&#1088;&#1080;&#1090;&#1100; &#1080;&#1084;&#1103;</text><polygon fill="#F1F1F1" points="389.5,1188.6113,631.5,1188.6113,643.5,1200.6113,631.5,1212.6113,389.5,1212.6113,377.5,1200.6113,389.5,1188.6113" style="stroke:#181818;stroke-width:0.5;"/><text fill="#000000" font-family="sans-serif" font-size="14" lengthAdjust="spacing" textLength="242" x="389.5" y="1206.3398">&#1048;&#1084;&#1103; &#1085;&#1077;&#1082;&#1086;&#1088;&#1088;&#1077;&#1082;&#1090;&#1085;&#1086;&#1077; &#1080;&#1083;&#1080; &#1086;&#1090;&#1089;&#1091;&#1090;&#1089;&#1090;&#1074;&#1091;&#1077;&#1090;?</text><text fill="#000000" font-family="sans-serif" font-size="16" lengthAdjust="spacing" textLength="18" x="359.5" y="1197.0957">&#1076;&#1072;</text><text fill="#000000" font-family="sans-serif" font-size="16" lengthAdjust="spacing" textLength="24" x="643.5" y="1197.0957">&#1085;&#1077;&#1090;</text><rect fill="#FFC0CB" height="37.6094" rx="12.5" ry="12.5" style="stroke:#181818;stroke-width:0.5;" width="208" x="263.5" y="1232.6113"/><text fill="#000000" font-family="sans-serif" font-size="14" lengthAdjust="spacing" textLength="188" x="273.5" y="1257.1445">&#1054;&#1096;&#1080;&#1073;&#1082;&#1072; "&#1053;&#1077;&#1082;&#1086;&#1088;&#1088;&#1077;&#1082;&#1090;&#1085;&#1086;&#1077; &#1080;&#1084;&#1103;"</text><ellipse cx="367.5" cy="1316.2207" fill="none" rx="11" ry="11" style="stroke:#222222;stroke-width:1.0;"/><ellipse cx="367.5" cy="1316.2207" fill="#222222" rx="6" ry="6" style="stroke:#222222;stroke-width:1.0;"/><polygon fill="#F1F1F1" points="364,1347.3613,657,1347.3613,669,1359.3613,657,1371.3613,364,1371.3613,352,1359.3613,364,1347.3613" style="stroke:#181818;stroke-width:0.5;"/><text fill="#000000" font-family="sans-serif" font-size="14" lengthAdjust="spacing" textLength="293" x="364" y="1365.0898">"&#1055;&#1086;&#1076;&#1082;&#1083;&#1102;&#1095;&#1077;&#1085;&#1085;&#1099;&#1081; &#1087;&#1086;&#1083;&#1100;&#1079;&#1086;&#1074;&#1072;&#1090;&#1077;&#1083;&#1100;" &#1089;&#1091;&#1097;&#1077;&#1089;&#1090;&#1074;&#1091;&#1077;&#1090;?</text><text fill="#000000" font-family="sans-serif" font-size="16" lengthAdjust="spacing" textLength="18" x="334" y="1355.8457">&#1076;&#1072;</text><text fill="#000000" font-family="sans-serif" font-size="16" lengthAdjust="spacing" textLength="24" x="669" y="1355.8457">&#1085;&#1077;&#1090;</text><rect fill="#F1F1F1" height="55.2188" rx="12.5" ry="12.5" style="stroke:#181818;stroke-width:0.5;" width="259" x="181.5" y="1391.3613"/><text fill="#000000" font-family="sans-serif" font-size="14" lengthAdjust="spacing" textLength="71" x="191.5" y="1415.8945">&#1055;&#1088;&#1086;&#1074;&#1077;&#1088;&#1080;&#1090;&#1100;</text><text fill="#000000" font-family="sans-serif" font-size="14" font-weight="bold" lengthAdjust="spacing" textLength="97" x="266.5" y="1415.8945">&#1040;&#1050;&#1058;&#1059;&#1040;&#1051;&#1068;&#1053;&#1059;&#1070;</text><text fill="#000000" font-family="sans-serif" font-size="14" lengthAdjust="spacing" textLength="63" x="367.5" y="1415.8945">id &#1089;&#1077;&#1089;&#1089;&#1080;&#1102;</text><text fill="#000000" font-family="sans-serif" font-size="14" lengthAdjust="spacing" textLength="124" x="195.5" y="1433.5039">&#1085;&#1072;&#1081;&#1076;&#1077;&#1085;&#1085;&#1086;&#1075;&#1086; &#1080;&#1075;&#1088;&#1086;&#1082;&#1072;</text><polygon fill="#F1F1F1" points="186.5,1466.7207,435.5,1466.7207,447.5,1478.7207,435.5,1490.7207,186.5,1490.7207,174.5,1478.7207,186.5,1466.7207" style="stroke:#181818;stroke-width:0.5;"/><text fill="#000000" font-family="sans-serif" font-size="14" font-weight="bold" lengthAdjust="spacing" textLength="93" x="186.5" y="1484.4492">&#1040;&#1050;&#1058;&#1059;&#1040;&#1051;&#1068;&#1053;&#1040;&#1071;</text><text fill="#000000" font-family="sans-serif" font-size="14" lengthAdjust="spacing" textLength="152" x="283.5" y="1484.4492">id &#1089;&#1077;&#1089;&#1089;&#1080;&#1103; &#1089;&#1091;&#1097;&#1077;&#1089;&#1090;&#1074;&#1091;&#1077;&#1090; ?</text><text fill="#000000" font-family="sans-serif" font-size="16" lengthAdjust="spacing" textLength="27" x="147.5" y="1475.2051">&#1053;&#1077;&#1090;</text><text fill="#000000" font-family="sans-serif" font-size="16" lengthAdjust="spacing" textLength="86" x="447.5" y="1475.2051">&#1057;&#1091;&#1097;&#1077;&#1089;&#1090;&#1074;&#1091;&#1077;&#1090;</text><rect fill="#F1F1F1" height="55.2188" rx="12.5" ry="12.5" style="stroke:#181818;stroke-width:0.5;" width="232" x="48.5" y="1500.7207"/><text fill="#000000" font-family="sans-serif" font-size="14" lengthAdjust="spacing" textLength="212" x="58.5" y="1525.2539">&#1059;&#1089;&#1090;&#1072;&#1085;&#1086;&#1074;&#1080;&#1090;&#1100; &#1072;&#1082;&#1090;&#1091;&#1072;&#1083;&#1100;&#1085;&#1086;&#1102; &#1089;&#1077;&#1089;&#1089;&#1080;&#1102;</text><text fill="#000000" font-family="sans-serif" font-size="14" lengthAdjust="spacing" textLength="201" x="62.5" y="1542.8633">&#1076;&#1083;&#1103; &#1085;&#1072;&#1081;&#1076;&#1077;&#1085;&#1085;&#1086;&#1075;&#1086; &#1087;&#1086;&#1083;&#1100;&#1079;&#1086;&#1074;&#1072;&#1090;&#1077;&#1083;&#1103;</text><rect fill="#98FB98" height="37.6094" rx="12.5" ry="12.5" style="stroke:#181818;stroke-width:0.5;" width="287" x="21" y="1575.9395"/><text fill="#000000" font-family="sans-serif" font-size="14" lengthAdjust="spacing" textLength="267" x="31" y="1600.4727">&#1042;&#1077;&#1088;&#1085;&#1091;&#1090;&#1100; "&#1055;&#1086;&#1076;&#1082;&#1083;&#1102;&#1095;&#1077;&#1085;&#1085;&#1086;&#1075;&#1086; &#1087;&#1086;&#1083;&#1100;&#1079;&#1086;&#1074;&#1072;&#1090;&#1077;&#1083;&#1103;"</text><ellipse cx="164.5" cy="1644.5488" fill="none" rx="11" ry="11" style="stroke:#222222;stroke-width:1.0;"/><ellipse cx="164.5" cy="1644.5488" fill="#222222" rx="6" ry="6" style="stroke:#222222;stroke-width:1.0;"/><rect fill="#FFC0CB" height="55.2188" rx="12.5" ry="12.5" style="stroke:#181818;stroke-width:0.5;" width="185" x="365" y="1500.7207"/><text fill="#000000" font-family="sans-serif" font-size="14" lengthAdjust="spacing" textLength="152" x="375" y="1525.2539">&#1054;&#1096;&#1080;&#1073;&#1082;&#1072; "&#1048;&#1075;&#1088;&#1086;&#1082; &#1089; &#1090;&#1072;&#1082;&#1080;&#1084;</text><text fill="#000000" font-family="sans-serif" font-size="14" lengthAdjust="spacing" textLength="161" x="379" y="1542.8633">&#1080;&#1084;&#1077;&#1085;&#1077;&#1084; &#1091;&#1078;&#1077; &#1087;&#1086;&#1076;&#1082;&#1083;&#1102;&#1095;&#1077;&#1085;"</text><ellipse cx="457.5" cy="1586.9395" fill="none" rx="11" ry="11" style="stroke:#222222;stroke-width:1.0;"/><ellipse cx="457.5" cy="1586.9395" fill="#222222" rx="6" ry="6" style="stroke:#222222;stroke-width:1.0;"/><polygon fill="#F1F1F1" points="411.5,1675.6895,609.5,1675.6895,621.5,1687.6895,609.5,1699.6895,411.5,1699.6895,399.5,1687.6895,411.5,1675.6895" style="stroke:#181818;stroke-width:0.5;"/><text fill="#000000" font-family="sans-serif" font-size="14" lengthAdjust="spacing" textLength="198" x="411.5" y="1693.418">&#1052;&#1077;&#1089;&#1090;&#1086; &#1076;&#1083;&#1103; &#1085;&#1086;&#1074;&#1086;&#1075;&#1086; &#1080;&#1075;&#1088;&#1086;&#1082;&#1072; &#1077;&#1089;&#1090;&#1100;</text><text fill="#000000" font-family="sans-serif" font-size="16" lengthAdjust="spacing" textLength="24" x="375.5" y="1684.1738">&#1085;&#1077;&#1090;</text><text fill="#000000" font-family="sans-serif" font-size="16" lengthAdjust="spacing" textLength="18" x="621.5" y="1684.1738">&#1076;&#1072;</text><rect fill="#FFC0CB" height="55.2188" rx="12.5" ry="12.5" style="stroke:#181818;stroke-width:0.5;" width="228" x="272.5" y="1719.6895"/><text fill="#000000" font-family="sans-serif" font-size="14" lengthAdjust="spacing" textLength="208" x="282.5" y="1744.2227">&#1054;&#1096;&#1080;&#1073;&#1082;&#1072; "&#1053;&#1077;&#1090; &#1089;&#1074;&#1086;&#1073;&#1086;&#1076;&#1085;&#1086;&#1075;&#1086; &#1084;&#1077;&#1089;&#1090;&#1086;</text><text fill="#000000" font-family="sans-serif" font-size="14" lengthAdjust="spacing" textLength="121" x="286.5" y="1761.832">&#1076;&#1083;&#1103; &#1087;&#1086;&#1076;&#1082;&#1083;&#1102;&#1095;&#1077;&#1085;&#1080;&#1103;"</text><ellipse cx="386.5" cy="1805.9082" fill="none" rx="11" ry="11" style="stroke:#222222;stroke-width:1.0;"/><ellipse cx="386.5" cy="1805.9082" fill="#222222" rx="6" ry="6" style="stroke:#222222;stroke-width:1.0;"/><polygon fill="#F1F1F1" points="348.5,1837.0488,672.5,1837.0488,684.5,1849.0488,672.5,1861.0488,348.5,1861.0488,336.5,1849.0488,348.5,1837.0488" style="stroke:#181818;stroke-width:0.5;"/><text fill="#000000" font-family="sans-serif" font-size="14" lengthAdjust="spacing" textLength="324" x="348.5" y="1854.7773">&#1059;&#1076;&#1072;&#1083;&#1086;&#1089;&#1100; &#1089;&#1086;&#1079;&#1076;&#1072;&#1090;&#1100; "&#1055;&#1086;&#1076;&#1082;&#1083;&#1102;&#1095;&#1077;&#1085;&#1085;&#1086;&#1075;&#1086; &#1087;&#1086;&#1083;&#1100;&#1079;&#1086;&#1074;&#1072;&#1090;&#1077;&#1083;&#1103;"</text><text fill="#000000" font-family="sans-serif" font-size="16" lengthAdjust="spacing" textLength="24" x="312.5" y="1845.5332">&#1085;&#1077;&#1090;</text><text fill="#000000" font-family="sans-serif" font-size="16" lengthAdjust="spacing" textLength="18" x="684.5" y="1845.5332">&#1076;&#1072;</text><rect fill="#FFC0CB" height="55.2188" rx="12.5" ry="12.5" style="stroke:#181818;stroke-width:0.5;" width="254" x="199.5" y="1881.0488"/><text fill="#000000" font-family="sans-serif" font-size="14" lengthAdjust="spacing" textLength="234" x="209.5" y="1905.582">&#1054;&#1096;&#1080;&#1073;&#1082;&#1072; "&#1053;&#1077; &#1091;&#1076;&#1072;&#1083;&#1086;&#1089;&#1100; &#1087;&#1086;&#1076;&#1082;&#1083;&#1102;&#1095;&#1080;&#1090;&#1100;&#1089;&#1103;</text><text fill="#000000" font-family="sans-serif" font-size="14" lengthAdjust="spacing" textLength="136" x="213.5" y="1923.1914">&#1082; &#1072;&#1082;&#1090;&#1080;&#1074;&#1085;&#1099;&#1084; &#1080;&#1075;&#1088;&#1086;&#1082;&#1072;&#1084;"</text><ellipse cx="326.5" cy="1967.2676" fill="none" rx="11" ry="11" style="stroke:#222222;stroke-width:1.0;"/><ellipse cx="326.5" cy="1967.2676" fill="#222222" rx="6" ry="6" style="stroke:#222222;stroke-width:1.0;"/><polygon fill="#F1F1F1" points="375,1998.2676,646,1998.2676,658,2015.877,646,2033.4863,375,2033.4863,363,2015.877,375,1998.2676" style="stroke:#181818;stroke-width:0.5;"/><text fill="#000000" font-family="sans-serif" font-size="14" lengthAdjust="spacing" textLength="170" x="375" y="2012.8008">&#1059;&#1076;&#1072;&#1083;&#1086;&#1089;&#1100; &#1076;&#1086;&#1073;&#1072;&#1074;&#1080;&#1090;&#1100; &#1085;&#1086;&#1074;&#1086;&#1075;&#1086;</text><text fill="#000000" font-family="sans-serif" font-size="14" lengthAdjust="spacing" textLength="267" x="379" y="2030.4102">"&#1055;&#1086;&#1076;&#1082;&#1083;&#1102;&#1095;&#1077;&#1085;&#1085;&#1086;&#1075;&#1086; &#1087;&#1086;&#1083;&#1100;&#1079;&#1086;&#1074;&#1072;&#1090;&#1077;&#1083;&#1103;" &#1074; &#1089;&#1087;&#1080;&#1089;&#1086;&#1082;</text><text fill="#000000" font-family="sans-serif" font-size="16" lengthAdjust="spacing" textLength="18" x="345" y="2012.3613">&#1076;&#1072;</text><text fill="#000000" font-family="sans-serif" font-size="16" lengthAdjust="spacing" textLength="24" x="658" y="2012.3613">&#1085;&#1077;&#1090;</text><rect fill="#F1F1F1" height="55.2188" rx="12.5" ry="12.5" style="stroke:#181818;stroke-width:0.5;" width="241" x="232.5" y="2043.4863"/><text fill="#000000" font-family="sans-serif" font-size="14" lengthAdjust="spacing" textLength="212" x="242.5" y="2068.0195">&#1059;&#1089;&#1090;&#1072;&#1085;&#1086;&#1074;&#1080;&#1090;&#1100; &#1072;&#1082;&#1090;&#1091;&#1072;&#1083;&#1100;&#1085;&#1086;&#1102; &#1089;&#1077;&#1089;&#1089;&#1080;&#1102;</text><text fill="#000000" font-family="sans-serif" font-size="14" lengthAdjust="spacing" textLength="201" x="262.5" y="2085.6289">&#1076;&#1083;&#1103; &#1085;&#1072;&#1081;&#1076;&#1077;&#1085;&#1085;&#1086;&#1075;&#1086; &#1087;&#1086;&#1083;&#1100;&#1079;&#1086;&#1074;&#1072;&#1090;&#1077;&#1083;&#1103;</text><rect fill="#98FB98" height="37.6094" rx="12.5" ry="12.5" style="stroke:#181818;stroke-width:0.5;" width="287" x="209.5" y="2133.7051"/><text fill="#000000" font-family="sans-serif" font-size="14" lengthAdjust="spacing" textLength="267" x="219.5" y="2158.2383">&#1042;&#1077;&#1088;&#1085;&#1091;&#1090;&#1100; "&#1055;&#1086;&#1076;&#1082;&#1083;&#1102;&#1095;&#1077;&#1085;&#1085;&#1086;&#1075;&#1086; &#1087;&#1086;&#1083;&#1100;&#1079;&#1086;&#1074;&#1072;&#1090;&#1077;&#1083;&#1103;"</text><ellipse cx="353" cy="2202.3145" fill="none" rx="11" ry="11" style="stroke:#222222;stroke-width:1.0;"/><ellipse cx="353" cy="2202.3145" fill="#222222" rx="6" ry="6" style="stroke:#222222;stroke-width:1.0;"/><rect fill="#FFC0CB" height="37.6094" rx="12.5" ry="12.5" style="stroke:#181818;stroke-width:0.5;" width="274" x="531" y="2043.4863"/><text fill="#000000" font-family="sans-serif" font-size="14" lengthAdjust="spacing" textLength="254" x="541" y="2068.0195">&#1054;&#1096;&#1080;&#1073;&#1082;&#1072; "&#1053;&#1077; &#1091;&#1076;&#1072;&#1083;&#1086;&#1089;&#1100; &#1076;&#1086;&#1073;&#1072;&#1074;&#1080;&#1090;&#1100; &#1080;&#1075;&#1088;&#1086;&#1082;&#1072;"</text><ellipse cx="668" cy="2127.0957" fill="none" rx="11" ry="11" style="stroke:#222222;stroke-width:1.0;"/><ellipse cx="668" cy="2127.0957" fill="#222222" rx="6" ry="6" style="stroke:#222222;stroke-width:1.0;"/><line style="stroke:#000000;stroke-width:1.5;" x1="15" x2="15" y1="58.6113" y2="2219.3145"/><rect fill="#F1F1F1" height="55.2188" rx="12.5" ry="12.5" style="stroke:#181818;stroke-width:0.5;" width="279" x="855" y="684.2363"/><text fill="#000000" font-family="sans-serif" font-size="14" lengthAdjust="spacing" textLength="211" x="865" y="708.7695">&#1055;&#1086;&#1080;&#1089;&#1082; &#1087;&#1086; &#1087;&#1086;&#1089;&#1083;&#1077;&#1076;&#1085;&#1077;&#1081; id &#1057;&#1077;&#1089;&#1089;&#1080;&#1080; &#1074;</text><text fill="#000000" font-family="sans-serif" font-size="14" lengthAdjust="spacing" textLength="259" x="865" y="726.3789">&#1089;&#1087;&#1080;&#1089;&#1082;&#1077; "&#1055;&#1086;&#1076;&#1082;&#1083;&#1102;&#1095;&#1077;&#1085;&#1085;&#1099;&#1093; &#1087;&#1086;&#1083;&#1100;&#1079;&#1086;&#1074;&#1072;&#1090;&#1077;&#1083;&#1077;&#1081;"</text><rect fill="#F1F1F1" height="55.2188" rx="12.5" ry="12.5" style="stroke:#181818;stroke-width:0.5;" width="231" x="863" y="1232.6113"/><text fill="#000000" font-family="sans-serif" font-size="14" lengthAdjust="spacing" textLength="175" x="873" y="1257.1445">&#1055;&#1086;&#1080;&#1089;&#1082; &#1087;&#1086; "&#1048;&#1084;&#1077;&#1085;&#1080;" &#1074; &#1089;&#1087;&#1080;&#1089;&#1082;&#1077;</text><text fill="#000000" font-family="sans-serif" font-size="14" lengthAdjust="spacing" textLength="211" x="873" y="1274.7539">"&#1055;&#1086;&#1076;&#1082;&#1083;&#1102;&#1095;&#1077;&#1085;&#1085;&#1099;&#1093; &#1087;&#1086;&#1083;&#1100;&#1079;&#1086;&#1074;&#1072;&#1090;&#1077;&#1083;&#1077;&#1081;"</text><rect fill="#F1F1F1" height="55.2188" rx="12.5" ry="12.5" style="stroke:#181818;stroke-width:0.5;" width="260" x="905" y="1391.3613"/><text fill="#000000" font-family="sans-serif" font-size="14" lengthAdjust="spacing" textLength="240" x="915" y="1415.8945">&#1055;&#1088;&#1086;&#1074;&#1077;&#1088;&#1080;&#1090;&#1100; &#1077;&#1089;&#1090;&#1100; &#1083;&#1080; &#1084;&#1077;&#1089;&#1090;&#1086; &#1076;&#1083;&#1103; &#1085;&#1086;&#1074;&#1099;&#1093;</text><text fill="#000000" font-family="sans-serif" font-size="14" lengthAdjust="spacing" textLength="122" x="915" y="1433.5039">&#1048;&#1075;&#1088;&#1086;&#1082;&#1086;&#1074; &#1074; &#1082;&#1086;&#1084;&#1085;&#1072;&#1090;&#1077;</text><rect fill="#F1F1F1" height="55.2188" rx="12.5" ry="12.5" style="stroke:#181818;stroke-width:0.5;" width="228" x="845.5" y="1719.6895"/><text fill="#000000" font-family="sans-serif" font-size="14" lengthAdjust="spacing" textLength="103" x="855.5" y="1744.2227">&#1057;&#1086;&#1079;&#1076;&#1072;&#1090;&#1100; &#1085;&#1086;&#1074;&#1086;&#1075;&#1086;</text><text fill="#000000" font-family="sans-serif" font-size="14" lengthAdjust="spacing" textLength="208" x="855.5" y="1761.832">"&#1055;&#1086;&#1076;&#1082;&#1083;&#1102;&#1095;&#1077;&#1085;&#1085;&#1086;&#1075;&#1086; &#1087;&#1086;&#1083;&#1100;&#1079;&#1086;&#1074;&#1072;&#1090;&#1077;&#1083;&#1103;"</text><rect fill="#F1F1F1" height="55.2188" rx="12.5" ry="12.5" style="stroke:#181818;stroke-width:0.5;" width="231" x="904" y="1881.0488"/><text fill="#000000" font-family="sans-serif" font-size="14" lengthAdjust="spacing" textLength="122" x="914" y="1905.582">&#1044;&#1086;&#1073;&#1072;&#1074;&#1080;&#1090;&#1100; &#1074; &#1089;&#1087;&#1080;&#1089;&#1086;&#1082;</text><text fill="#000000" font-family="sans-serif" font-size="14" lengthAdjust="spacing" textLength="211" x="914" y="1923.1914">"&#1055;&#1086;&#1076;&#1082;&#1083;&#1102;&#1095;&#1077;&#1085;&#1085;&#1099;&#1093; &#1087;&#1086;&#1083;&#1100;&#1079;&#1086;&#1074;&#1072;&#1090;&#1077;&#1083;&#1077;&#1081;"</text><line style="stroke:#000000;stroke-width:1.5;" x1="839.5" x2="839.5" y1="58.6113" y2="2219.3145"/><line style="stroke:#000000;stroke-width:1.5;" x1="1169" x2="1169" y1="58.6113" y2="2219.3145"/><line style="stroke:#181818;stroke-width:1.0;" x1="358" x2="358" y1="300.8301" y2="320.8301"/><polygon fill="#181818" points="354,310.8301,358,320.8301,362,310.8301,358,314.8301" style="stroke:#181818;stroke-width:1.0;"/><line style="stroke:#181818;stroke-width:1.0;" x1="368" x2="358" y1="223.6113" y2="223.6113"/><line style="stroke:#181818;stroke-width:1.0;" x1="358" x2="358" y1="223.6113" y2="245.6113"/><polygon fill="#181818" points="354,235.6113,358,245.6113,362,235.6113,358,239.6113" style="stroke:#181818;stroke-width:1.0;"/><line style="stroke:#181818;stroke-width:1.0;" x1="653" x2="663" y1="223.6113" y2="223.6113"/><line style="stroke:#181818;stroke-width:1.0;" x1="663" x2="663" y1="223.6113" y2="245.6113"/><polygon fill="#181818" points="659,235.6113,663,245.6113,667,235.6113,663,239.6113" style="stroke:#181818;stroke-width:1.0;"/><line style="stroke:#181818;stroke-width:1.0;" x1="663" x2="663" y1="300.8301" y2="347.8301"/><line style="stroke:#181818;stroke-width:1.0;" x1="663" x2="510.5" y1="347.8301" y2="347.8301"/><line style="stroke:#181818;stroke-width:1.0;" x1="510.5" x2="510.5" y1="347.8301" y2="402.4395"/><polygon fill="#181818" points="506.5,392.4395,510.5,402.4395,514.5,392.4395,510.5,396.4395" style="stroke:#181818;stroke-width:1.0;"/><line style="stroke:#181818;stroke-width:1.0;" x1="510.5" x2="510.5" y1="191.4707" y2="211.6113"/><polygon fill="#181818" points="506.5,201.6113,510.5,211.6113,514.5,201.6113,510.5,205.6113" style="stroke:#181818;stroke-width:1.0;"/><line style="stroke:#181818;stroke-width:1.0;" x1="510.5" x2="510.5" y1="106.252" y2="153.8613"/><polygon fill="#181818" points="506.5,143.8613,510.5,153.8613,514.5,143.8613,510.5,147.8613" style="stroke:#181818;stroke-width:1.0;"/><line style="stroke:#181818;stroke-width:1.0;" x1="510.5" x2="510.5" y1="475.2676" y2="495.2676"/><polygon fill="#181818" points="506.5,485.2676,510.5,495.2676,514.5,485.2676,510.5,489.2676" style="stroke:#181818;stroke-width:1.0;"/><line style="stroke:#181818;stroke-width:1.0;" x1="510.5" x2="510.5" y1="550.4863" y2="582.4863"/><polygon fill="#181818" points="506.5,572.4863,510.5,582.4863,514.5,572.4863,510.5,576.4863" style="stroke:#181818;stroke-width:1.0;"/><line style="stroke:#181818;stroke-width:1.0;" x1="351.5" x2="351.5" y1="739.4551" y2="759.4551"/><polygon fill="#181818" points="347.5,749.4551,351.5,759.4551,355.5,749.4551,351.5,753.4551" style="stroke:#181818;stroke-width:1.0;"/><line style="stroke:#181818;stroke-width:1.0;" x1="361.5" x2="351.5" y1="652.2363" y2="652.2363"/><line style="stroke:#181818;stroke-width:1.0;" x1="351.5" x2="351.5" y1="652.2363" y2="684.2363"/><polygon fill="#181818" points="347.5,674.2363,351.5,684.2363,355.5,674.2363,351.5,678.2363" style="stroke:#181818;stroke-width:1.0;"/><line style="stroke:#181818;stroke-width:1.0;" x1="510.5" x2="510.5" y1="620.0957" y2="640.2363"/><polygon fill="#181818" points="506.5,630.2363,510.5,640.2363,514.5,630.2363,510.5,634.2363" style="stroke:#181818;stroke-width:1.0;"/><line style="stroke:#181818;stroke-width:1.0;" x1="166" x2="166" y1="1011.252" y2="1031.252"/><polygon fill="#181818" points="162,1021.252,166,1031.252,170,1021.252,166,1025.252" style="stroke:#181818;stroke-width:1.0;"/><line style="stroke:#181818;stroke-width:1.0;" x1="166" x2="166" y1="1068.8613" y2="1088.8613"/><polygon fill="#181818" points="162,1078.8613,166,1088.8613,170,1078.8613,166,1082.8613" style="stroke:#181818;stroke-width:1.0;"/><line style="stroke:#181818;stroke-width:1.0;" x1="459" x2="459" y1="1011.252" y2="1031.252"/><polygon fill="#181818" points="455,1021.252,459,1031.252,463,1021.252,459,1025.252" style="stroke:#181818;stroke-width:1.0;"/><line style="stroke:#181818;stroke-width:1.0;" x1="176" x2="166" y1="934.0332" y2="934.0332"/><line style="stroke:#181818;stroke-width:1.0;" x1="166" x2="166" y1="934.0332" y2="956.0332"/><polygon fill="#181818" points="162,946.0332,166,956.0332,170,946.0332,166,950.0332" style="stroke:#181818;stroke-width:1.0;"/><line style="stroke:#181818;stroke-width:1.0;" x1="449" x2="459" y1="934.0332" y2="934.0332"/><line style="stroke:#181818;stroke-width:1.0;" x1="459" x2="459" y1="934.0332" y2="956.0332"/><polygon fill="#181818" points="455,946.0332,459,956.0332,463,946.0332,459,950.0332" style="stroke:#181818;stroke-width:1.0;"/><line style="stroke:#181818;stroke-width:1.0;" x1="312.5" x2="312.5" y1="901.8926" y2="922.0332"/><polygon fill="#181818" points="308.5,912.0332,312.5,922.0332,316.5,912.0332,312.5,916.0332" style="stroke:#181818;stroke-width:1.0;"/><line style="stroke:#181818;stroke-width:1.0;" x1="389" x2="312.5" y1="819.0645" y2="819.0645"/><line style="stroke:#181818;stroke-width:1.0;" x1="312.5" x2="312.5" y1="819.0645" y2="846.6738"/><polygon fill="#181818" points="308.5,836.6738,312.5,846.6738,316.5,836.6738,312.5,840.6738" style="stroke:#181818;stroke-width:1.0;"/><line style="stroke:#181818;stroke-width:1.0;" x1="632" x2="708.5" y1="819.0645" y2="819.0645"/><line style="stroke:#181818;stroke-width:1.0;" x1="708.5" x2="708.5" y1="819.0645" y2="846.6738"/><polygon fill="#181818" points="704.5,836.6738,708.5,846.6738,712.5,836.6738,708.5,840.6738" style="stroke:#181818;stroke-width:1.0;"/><line style="stroke:#181818;stroke-width:1.0;" x1="708.5" x2="708.5" y1="884.2832" y2="1115.8613"/><line style="stroke:#181818;stroke-width:1.0;" x1="708.5" x2="510.5" y1="1115.8613" y2="1115.8613"/><line style="stroke:#181818;stroke-width:1.0;" x1="510.5" x2="510.5" y1="1115.8613" y2="1130.8613"/><polygon fill="#181818" points="506.5,1120.8613,510.5,1130.8613,514.5,1120.8613,510.5,1124.8613" style="stroke:#181818;stroke-width:1.0;"/><line style="stroke:#181818;stroke-width:1.0;" x1="994.5" x2="994.5" y1="739.4551" y2="785.4551"/><line style="stroke:#181818;stroke-width:1.0;" x1="994.5" x2="510.5" y1="785.4551" y2="785.4551"/><line style="stroke:#181818;stroke-width:1.0;" x1="510.5" x2="510.5" y1="785.4551" y2="801.4551"/><polygon fill="#181818" points="506.5,791.4551,510.5,801.4551,514.5,791.4551,510.5,795.4551" style="stroke:#181818;stroke-width:1.0;"/><line style="stroke:#181818;stroke-width:1.0;" x1="367.5" x2="367.5" y1="1270.2207" y2="1305.2207"/><polygon fill="#181818" points="363.5,1295.2207,367.5,1305.2207,371.5,1295.2207,367.5,1299.2207" style="stroke:#181818;stroke-width:1.0;"/><line style="stroke:#181818;stroke-width:1.0;" x1="377.5" x2="367.5" y1="1200.6113" y2="1200.6113"/><line style="stroke:#181818;stroke-width:1.0;" x1="367.5" x2="367.5" y1="1200.6113" y2="1232.6113"/><polygon fill="#181818" points="363.5,1222.6113,367.5,1232.6113,371.5,1222.6113,367.5,1226.6113" style="stroke:#181818;stroke-width:1.0;"/><line style="stroke:#181818;stroke-width:1.0;" x1="510.5" x2="510.5" y1="1168.4707" y2="1188.6113"/><polygon fill="#181818" points="506.5,1178.6113,510.5,1188.6113,514.5,1178.6113,510.5,1182.6113" style="stroke:#181818;stroke-width:1.0;"/><line style="stroke:#181818;stroke-width:1.0;" x1="164.5" x2="164.5" y1="1555.9395" y2="1575.9395"/><polygon fill="#181818" points="160.5,1565.9395,164.5,1575.9395,168.5,1565.9395,164.5,1569.9395" style="stroke:#181818;stroke-width:1.0;"/><line style="stroke:#181818;stroke-width:1.0;" x1="164.5" x2="164.5" y1="1613.5488" y2="1633.5488"/><polygon fill="#181818" points="160.5,1623.5488,164.5,1633.5488,168.5,1623.5488,164.5,1627.5488" style="stroke:#181818;stroke-width:1.0;"/><line style="stroke:#181818;stroke-width:1.0;" x1="457.5" x2="457.5" y1="1555.9395" y2="1575.9395"/><polygon fill="#181818" points="453.5,1565.9395,457.5,1575.9395,461.5,1565.9395,457.5,1569.9395" style="stroke:#181818;stroke-width:1.0;"/><line style="stroke:#181818;stroke-width:1.0;" x1="174.5" x2="164.5" y1="1478.7207" y2="1478.7207"/><line style="stroke:#181818;stroke-width:1.0;" x1="164.5" x2="164.5" y1="1478.7207" y2="1500.7207"/><polygon fill="#181818" points="160.5,1490.7207,164.5,1500.7207,168.5,1490.7207,164.5,1494.7207" style="stroke:#181818;stroke-width:1.0;"/><line style="stroke:#181818;stroke-width:1.0;" x1="447.5" x2="457.5" y1="1478.7207" y2="1478.7207"/><line style="stroke:#181818;stroke-width:1.0;" x1="457.5" x2="457.5" y1="1478.7207" y2="1500.7207"/><polygon fill="#181818" points="453.5,1490.7207,457.5,1500.7207,461.5,1490.7207,457.5,1494.7207" style="stroke:#181818;stroke-width:1.0;"/><line style="stroke:#181818;stroke-width:1.0;" x1="311" x2="311" y1="1446.5801" y2="1466.7207"/><polygon fill="#181818" points="307,1456.7207,311,1466.7207,315,1456.7207,311,1460.7207" style="stroke:#181818;stroke-width:1.0;"/><line style="stroke:#181818;stroke-width:1.0;" x1="352" x2="311" y1="1359.3613" y2="1359.3613"/><line style="stroke:#181818;stroke-width:1.0;" x1="311" x2="311" y1="1359.3613" y2="1391.3613"/><polygon fill="#181818" points="307,1381.3613,311,1391.3613,315,1381.3613,311,1385.3613" style="stroke:#181818;stroke-width:1.0;"/><line style="stroke:#181818;stroke-width:1.0;" x1="978.5" x2="978.5" y1="1287.8301" y2="1331.2207"/><line style="stroke:#181818;stroke-width:1.0;" x1="978.5" x2="510.5" y1="1331.2207" y2="1331.2207"/><line style="stroke:#181818;stroke-width:1.0;" x1="510.5" x2="510.5" y1="1331.2207" y2="1347.3613"/><polygon fill="#181818" points="506.5,1337.3613,510.5,1347.3613,514.5,1337.3613,510.5,1341.3613" style="stroke:#181818;stroke-width:1.0;"/><line style="stroke:#181818;stroke-width:1.0;" x1="386.5" x2="386.5" y1="1774.9082" y2="1794.9082"/><polygon fill="#181818" points="382.5,1784.9082,386.5,1794.9082,390.5,1784.9082,386.5,1788.9082" style="stroke:#181818;stroke-width:1.0;"/><line style="stroke:#181818;stroke-width:1.0;" x1="399.5" x2="386.5" y1="1687.6895" y2="1687.6895"/><line style="stroke:#181818;stroke-width:1.0;" x1="386.5" x2="386.5" y1="1687.6895" y2="1719.6895"/><polygon fill="#181818" points="382.5,1709.6895,386.5,1719.6895,390.5,1709.6895,386.5,1713.6895" style="stroke:#181818;stroke-width:1.0;"/><line style="stroke:#181818;stroke-width:1.0;" x1="1035" x2="1035" y1="1446.5801" y2="1660.5488"/><line style="stroke:#181818;stroke-width:1.0;" x1="1035" x2="510.5" y1="1660.5488" y2="1660.5488"/><line style="stroke:#181818;stroke-width:1.0;" x1="510.5" x2="510.5" y1="1660.5488" y2="1675.6895"/><polygon fill="#181818" points="506.5,1665.6895,510.5,1675.6895,514.5,1665.6895,510.5,1669.6895" style="stroke:#181818;stroke-width:1.0;"/><line style="stroke:#181818;stroke-width:1.0;" x1="326.5" x2="326.5" y1="1936.2676" y2="1956.2676"/><polygon fill="#181818" points="322.5,1946.2676,326.5,1956.2676,330.5,1946.2676,326.5,1950.2676" style="stroke:#181818;stroke-width:1.0;"/><line style="stroke:#181818;stroke-width:1.0;" x1="336.5" x2="326.5" y1="1849.0488" y2="1849.0488"/><line style="stroke:#181818;stroke-width:1.0;" x1="326.5" x2="326.5" y1="1849.0488" y2="1881.0488"/><polygon fill="#181818" points="322.5,1871.0488,326.5,1881.0488,330.5,1871.0488,326.5,1875.0488" style="stroke:#181818;stroke-width:1.0;"/><line style="stroke:#181818;stroke-width:1.0;" x1="959.5" x2="959.5" y1="1774.9082" y2="1820.9082"/><line style="stroke:#181818;stroke-width:1.0;" x1="959.5" x2="510.5" y1="1820.9082" y2="1820.9082"/><line style="stroke:#181818;stroke-width:1.0;" x1="510.5" x2="510.5" y1="1820.9082" y2="1837.0488"/><polygon fill="#181818" points="506.5,1827.0488,510.5,1837.0488,514.5,1827.0488,510.5,1831.0488" style="stroke:#181818;stroke-width:1.0;"/><line style="stroke:#181818;stroke-width:1.0;" x1="353" x2="353" y1="2098.7051" y2="2133.7051"/><polygon fill="#181818" points="349,2123.7051,353,2133.7051,357,2123.7051,353,2127.7051" style="stroke:#181818;stroke-width:1.0;"/><line style="stroke:#181818;stroke-width:1.0;" x1="353" x2="353" y1="2171.3145" y2="2191.3145"/><polygon fill="#181818" points="349,2181.3145,353,2191.3145,357,2181.3145,353,2185.3145" style="stroke:#181818;stroke-width:1.0;"/><line style="stroke:#181818;stroke-width:1.0;" x1="668" x2="668" y1="2081.0957" y2="2116.0957"/><polygon fill="#181818" points="664,2106.0957,668,2116.0957,672,2106.0957,668,2110.0957" style="stroke:#181818;stroke-width:1.0;"/><line style="stroke:#181818;stroke-width:1.0;" x1="363" x2="353" y1="2015.877" y2="2015.877"/><line style="stroke:#181818;stroke-width:1.0;" x1="353" x2="353" y1="2015.877" y2="2043.4863"/><polygon fill="#181818" points="349,2033.4863,353,2043.4863,357,2033.4863,353,2037.4863" style="stroke:#181818;stroke-width:1.0;"/><line style="stroke:#181818;stroke-width:1.0;" x1="658" x2="668" y1="2015.877" y2="2015.877"/><line style="stroke:#181818;stroke-width:1.0;" x1="668" x2="668" y1="2015.877" y2="2043.4863"/><polygon fill="#181818" points="664,2033.4863,668,2043.4863,672,2033.4863,668,2037.4863" style="stroke:#181818;stroke-width:1.0;"/><line style="stroke:#181818;stroke-width:1.0;" x1="1019.5" x2="1019.5" y1="1936.2676" y2="1982.2676"/><line style="stroke:#181818;stroke-width:1.0;" x1="1019.5" x2="510.5" y1="1982.2676" y2="1982.2676"/><line style="stroke:#181818;stroke-width:1.0;" x1="510.5" x2="510.5" y1="1982.2676" y2="1998.2676"/><polygon fill="#181818" points="506.5,1988.2676,510.5,1998.2676,514.5,1988.2676,510.5,1992.2676" style="stroke:#181818;stroke-width:1.0;"/><line style="stroke:#181818;stroke-width:1.0;" x1="659.5" x2="994.5" y1="652.2363" y2="652.2363"/><line style="stroke:#181818;stroke-width:1.0;" x1="994.5" x2="994.5" y1="652.2363" y2="684.2363"/><polygon fill="#181818" points="990.5,674.2363,994.5,684.2363,998.5,674.2363,994.5,678.2363" style="stroke:#181818;stroke-width:1.0;"/><line style="stroke:#181818;stroke-width:1.0;" x1="643.5" x2="978.5" y1="1200.6113" y2="1200.6113"/><line style="stroke:#181818;stroke-width:1.0;" x1="978.5" x2="978.5" y1="1200.6113" y2="1232.6113"/><polygon fill="#181818" points="974.5,1222.6113,978.5,1232.6113,982.5,1222.6113,978.5,1226.6113" style="stroke:#181818;stroke-width:1.0;"/><line style="stroke:#181818;stroke-width:1.0;" x1="669" x2="1035" y1="1359.3613" y2="1359.3613"/><line style="stroke:#181818;stroke-width:1.0;" x1="1035" x2="1035" y1="1359.3613" y2="1391.3613"/><polygon fill="#181818" points="1031,1381.3613,1035,1391.3613,1039,1381.3613,1035,1385.3613" style="stroke:#181818;stroke-width:1.0;"/><line style="stroke:#181818;stroke-width:1.0;" x1="621.5" x2="959.5" y1="1687.6895" y2="1687.6895"/><line style="stroke:#181818;stroke-width:1.0;" x1="959.5" x2="959.5" y1="1687.6895" y2="1719.6895"/><polygon fill="#181818" points="955.5,1709.6895,959.5,1719.6895,963.5,1709.6895,959.5,1713.6895" style="stroke:#181818;stroke-width:1.0;"/><line style="stroke:#181818;stroke-width:1.0;" x1="684.5" x2="1019.5" y1="1849.0488" y2="1849.0488"/><line style="stroke:#181818;stroke-width:1.0;" x1="1019.5" x2="1019.5" y1="1849.0488" y2="1881.0488"/><polygon fill="#181818" points="1015.5,1871.0488,1019.5,1881.0488,1023.5,1871.0488,1019.5,1875.0488" style="stroke:#181818;stroke-width:1.0;"/><text fill="#000000" font-family="sans-serif" font-size="18" lengthAdjust="spacing" textLength="95" x="379.75" y="77.2969">AuthSystem</text><text fill="#000000" font-family="sans-serif" font-size="18" lengthAdjust="spacing" textLength="134" x="937.25" y="77.2969">ConnectedUsers</text><!--SRC=[xLVFRnj55BxlNp5o3ssY7W0X3l41HGLwGGZHSkDY9PDcLNiTsTj284Y9erAgH4c5E5JGDYgvGkkaDdQTjVCllFcF-DxRzVwSJO9Hg8J8mTdPcNa_llUzRsQlglPTrrkhjMeDzP5UgTsh-xVrD_vYtRtZDRJdgoNyw9QJh5fSyjtxhh_-ITFpRxdVQlNk-wdPpvg-ji_STlrwClNUEscJhLRpwsJN1uxZys9LeGEpIHFp0_NDbjbIrALZqy6BJHhIWBgO6D9GqIbDwCJiujM4Zl6wGtsCznKTAxD5G-pbDm7rAuwpiNZFNxsrtlPrOyDf-xMMxo08-7ERdhhogNjdrR-nNlFKn_UHUBXEVUSe_2tGWVZPDWzXisDs5NmZbAxuFU8dUGkNFDo1qo7rIuAkEcBJNL7Nw4LsFQ_PHBolmyXv7wF0cT6O9iMiFfnJ_ghsO6aCe3fpOfd_hgovtjq5Ucv-XEKZ6b4Na6QynKlBe1rpH6FClg4UlC5_fHflQllDDHdeUbl3VO-wYVC5-idiXAN1jWWmYnUp5s_X4lE602iUcLspfsxM6lgBPhCH-jJUihlYV9yhehLyqusMsY4BiwCuMCI5nnGAr-W91MR_Ec3gOa60ACSAk4seLxckt6K5z8IA34wIAfOAtKeg_VVGAALp0XDo48OCL893jO1BaQzdfJS7DYEsOJxBgYCSFOWes1SwIlGnWEQ1K2Ja2KomFz06Xc0YDcHbQIRWKie-umqvXxq44g3uW7FW481TFeE8i4BMF54tRZGzJo_vUldBjcwrDr9aGOFHA3J8FnYT0F8UHqzlyZuGWnCo66jb9m2eY9qUda_CNaYyQVJM4hDX11koF5jBha69EGGJ5JhFcDtALrwcUS_Anbwg1AXyeHOib9YVfyVq2_r6X_Z_A_sEmXtIo_dvhFrfmsTa1S82mPim2L-BNLI-6akanV1ZUbKml8y1wFv8NdH0YsqXJfBEiwm-5f8A4pkKtIAsI2_krH4UjfdX01fJwDHYJcariAPNqjjLx4ja-_DQNTziQUr1DGJUCRBYAAmKECTqfHfQBLNj5qN8pe78sgHFfeLZ6HVyHfWDKhWC-R0InWKAVlxae-Kqdu_rU96EYC8zIpqOhu7PZx0IiQkmtm4x2ZKp9oBnmDvtDfPp7gXOg8lYGuv9rb6pAJx052bBVwgfcEa8DJjfb2_IPcLwMEQDCoxgNHgp2ocUW2V56bQY2qUiQxBZtzEsqn9ji_Rw_yhr5fJhqeJhloXP9UrNL1d9ZXz4G88esqcgIDZ07IScabpuDRUiF0LSImOq3F6gyl1zfkfwnO_6ilSFoVrKvJuxplk-YamWLJ5Rsjpqr1wyfN7Yj6sNnJFkXc0ocpkIqiJ4Ya5pClGk590RS8PR8dz93NXLMATqJkKQUJxfIs4ybFFgX6zlqy_CnFrCplxHbPmR8XrG3bUXCIQcb_HHf4GmSYpQ7cGgJy4C5VXPQjvDj2vrKi7gPPnKkIfWa0iXHGDSlsSgIpwF2nrgRr7xBqNto-ulCzEpKAaK-p8-kV9_0G00]--></g></svg>